<svg version="1.0" xmlns="http://www.w3.org/2000/svg" width="2370.67" height="380" viewBox="0 0 1778 285"><path d="M956 4.1c-10.2 2.1-23.4 4.5-29.5 5.3l-11 1.5-17.5 18c-16 16.5-17.9 18.1-21.6 18.7-3.6.5-4.4 1.1-5.7 4.3-.8 2-7.4 17.2-14.6 33.9L843 116l-.5 26.8-.6 26.7 7.4 25.5 7.3 25.5 7.9 4.1c7 3.7 10 6.4 25.5 22.4l17.5 18.1 13 3.4c7.2 1.8 19.8 5.8 28 8.8l15 5.5 17 .7 17 .7 14.5-3.6c8-2 21.9-6.2 30.9-9.4l16.4-5.7 26.1-23.8c25.3-23.1 26.1-24 26.4-27.9.2-2.5 1.5-5.8 3.2-8.3 3.4-4.9 13-39.1 13-46.5.1-2.5-1.2-20.9-2.7-41l-2.7-36.5-23.9-26.2c-13.1-14.4-24.4-26.4-25-26.6-9.6-4.1-66.9-26.1-68.7-26.4-1.4-.2-6.8.2-12 1l-9.4 1.4-1.9-2.3c-2.4-3.1-3.3-3-25.7 1.7zm21.6 8.5c-.4 1.5-1.2 3.9-1.9 5.4l-1.2 2.6-14.5-4.2-14.5-4.1 7.5-.7c4.1-.3 9.1-.8 11-.9 1.9-.2 5.9-.5 8.9-.5 5.3-.2 5.3-.2 4.7 2.4zm-45.3 6.3c5.4 1.6 10.1 3.1 10.3 3.4.5.5-6.3 18.8-7.5 20-.6.5-10.2-18.3-12.9-25.4-.5-1.2-1.2-1.3 10.1 2zm-8.5 13.3c4 8.3 7.1 15.3 6.9 15.4-.2.2-10.1.1-22.1-.3l-21.7-.6L901.2 32c7.9-8.1 14.6-14.8 14.9-14.9.3 0 3.8 6.7 7.7 15.1zm94.2-9.6c0 1-12.1 23.3-12.9 23.8-.4.3-5.6-4.4-11.7-10.5-9.4-9.5-10.5-10.9-8.4-11 1.4 0 7.9-.6 14.5-1.3 14.1-1.6 18.5-1.8 18.5-1zm-52.2 2.3c4 .5 7.5 1.1 7.8 1.4.3.3-.5 7.5-1.7 16.1-1.2 8.6-2.3 15.5-2.4 15.4-.8-1-17.5-32.7-17.5-33.2 0-.8 4.9-.7 13.8.3zm-5.5 26.6c2.3 4.4 4.3 8.3 4.5 8.7.2.4-4.7-1.5-11-4.3-6.2-2.8-12.3-5.5-13.5-5.9-2.1-.9-2.1-.9 1.9-11.1 2.1-5.7 4.2-10.7 4.5-11.2.5-.8 4.2 5.6 13.6 23.8zm38-3.8l2.7 2.9-9.2 3.8c-5.1 2.1-11.4 4.6-13.9 5.6l-4.6 1.9.3-2.2c.2-1.2 1.1-7.4 1.9-13.7 2.6-19.4 1.3-18.3 11.3-9.1 4.8 4.3 9.9 9.2 11.5 10.8zM1091 54c6.8 7.4 14.2 15.4 16.4 17.8l4.1 4.3-14.5-6.6c-8-3.6-17.5-8-21.2-9.7-3.8-1.7-6.8-3.6-6.8-4.2 0-1 2.9-12.1 4.6-18 .7-2.2-1-3.8 17.4 16.4zm-168.3-2h6.4l-1.8 2.3c-1 1.3-5.2 6-9.3 10.5l-7.5 8.2-11-11.1-11-11.1 13.9.6c7.7.3 16.8.6 20.3.6zm125.4 2.9c4.6 1.6 9.2 3.2 10.2 3.6 1.4.6.2 1.9-6.5 6.6-4.6 3.2-8.7 5.7-9.3 5.5-.7-.2-3.7-18.6-3-18.6.1 0 3.9 1.3 8.6 2.9zM890.8 65c7.2 5.2 12.9 9.6 12.8 9.7-.5.5-37.8 4.4-38.6 4.1-.4-.2 1.8-5.8 4.8-12.5 3.8-8.6 5.8-12 6.7-11.5.7.4 7.1 5 14.3 10.2zm63.2-4c5.2 2.3 9.8 4.5 10.2 4.9.8.7-20.8 13.6-22.7 13.6-.9 0-3.1-15.1-3.4-22.8-.1-3.1-1.5-3.5 15.9 4.3zm82.7 2.2c.6 5.1 1 9.4.8 9.6-.5.5-22-2-22.7-2.7-.7-.6 18.9-16.1 20.3-16.1.3 0 1 4.2 1.6 9.2zM1004 62c0 3.8-.3 7-.6 7-2 0-20.1-3.4-21.2-3.9-1-.6 18-9.6 21.1-10 .4-.1.7 3 .7 6.9zm-68.1 16.1l.1 2.6-10.4-2.5-10.5-2.6 9.2-10 9.2-9.9 1.2 9.9c.6 5.4 1.2 11.1 1.2 12.5zm139.6 5c5.8 11.6 10 20.7 9.3 20.3-3-1.8-37.4-25.7-38.6-26.8-1-1 .7-2.6 8.5-7.9 5.4-3.6 9.9-6.6 10-6.6.2-.1 5 9.4 10.8 21zm20.3-3.1c11.1 6.9 20.2 12.7 20.2 13-.1.8-22 15.4-22.4 14.9-.6-.7-20.6-40.8-20.6-41.4 0-.7-1.5-1.6 22.8 13.5zm-106.3-8.9l15 2.3 15 9.9 15 10 9.3 19.1 9.3 19.1.7 12.4.7 12.4-6.1 14-6.1 14.1-13.8 9.9c-9.6 6.9-17.3 11.5-25.3 15.1l-11.5 5.2-10-1.3c-9.8-1.2-10.1-1.3-25.8-10.4-8.8-5-16.8-10.3-17.8-11.8-1-1.4-6.2-9.7-11.6-18.5l-9.7-15.8 1.7-15.3c2.1-19.6 6.9-33.3 16.3-47l6.3-9 15.2-8.6c8.3-4.8 15.9-8.6 16.7-8.4.8.2 8.3 1.3 16.5 2.6zM909 79.8c0 .4 1.3 9.5 3 20.2 1.6 10.7 2.8 19.5 2.7 19.7-.2.1-11.1-8-24.2-18-21.7-16.5-23.6-18.2-21-18.5C871.2 83 879 82 887 81c16.8-2 22-2.3 22-1.2zm156.7 16.8c11.4 8 20.9 14.8 21.1 15.2.1.6-23.9 11.9-29.7 14-.5.1-1.1-1-1.4-2.5-.4-1.5-3.1-11.5-6-22.1-3-10.5-5.3-19.2-5.1-19.2.1 0 9.6 6.6 21.1 14.6zm-194.9 12.9c-.4.4-19.4 4.5-20.7 4.5-.5 0 1.6-5.8 4.7-13l5.7-13 5.3 10.6c2.9 5.8 5.2 10.7 5 10.9zm20.7-.5c6.1 4.6 11.3 8.6 11.8 9 .4.3-5.4-1.4-12.9-4-8.3-2.8-14-5.3-14.6-6.4-.5-.9-2.5-5.1-4.4-9.3l-3.4-7.5 6.2 4.9c3.5 2.7 11.3 8.7 17.3 13.3zm226.2-8.3c-.3 1-1.3 6.3-2.3 11.8-.9 5.5-2.1 10.4-2.5 10.9-.4.4-4.1-1.8-8.2-5l-7.5-5.8 9.6-6.8c5.4-3.7 10.1-6.7 10.5-6.8.5 0 .6.8.4 1.7zm-259.5 34.8l-11.7 20.4-.3-7.2c-.2-4-.1-12.2.3-18.3l.7-11.2 9.6-2c5.4-1.1 10.5-2 11.4-2.1 1.2-.1-1.6 5.6-10 20.4zm55.4-8.4c.6.2-2.1 6.5-6.5 15l-7.6 14.6-9.5-20-9.8-20.7c-.2-.6 20 6.1 33.4 11.1zm184 .7c-5.8.1-15.4.1-21.3 0l-10.6-.3 13.4-6.1 13.4-6 7.9 6 7.8 6.1-10.6.3zM878.4 150c2 13 2.8 20.9 2.2 20.7-.6-.2-4.1-1.5-7.8-2.8-4.3-1.5-6.8-2.9-6.8-3.9 0-.8 1.8-9.7 4-19.8 2.2-10 4.1-18.6 4.1-19 .2-1.1.7 1.8 4.3 24.8zm-10-20.3c-1.1 4.8-7.4 34.2-7.4 34.7 0 1-11.8.7-12.4-.3-.5-.8 19-36.1 19.9-36.1.2 0 .1.8-.1 1.7zM896 161c0 1.1-9 8.3-9.6 7.7-.4-.4-6.5-38.8-6.4-40.6.1-.8 16 32 16 32.9zm206.5-25.5c-2.7 2.5-5.7 4.7-6.6 5-1.4.5-26.4-7.7-27.8-9-.2-.3 8.5-.5 19.5-.5l19.9.1-5 4.4zm-15.7 7.8c1.7.6 3.2 1.3 3.2 1.6 0 .5-2.2 2.1-13.1 9.4l-2.6 1.7-5.3-8.7c-3-4.9-6-9.8-6.7-11-1.3-2-.5-1.8 9.9 1.9 6.2 2.2 12.8 4.5 14.6 5.1zm10.7 22l.6 4.9-8.8-4.7c-4.8-2.6-9.2-5.1-9.6-5.5-.5-.4 2.3-2.9 6.3-5.5 3.9-2.7 7.4-5.3 7.8-5.9.6-1.1 2.3 6.5 3.7 16.7zm-1.8 9.3c-.1.1-7.8 4.7-17.2 10.4-9.3 5.7-18 11-19.3 11.8-1.9 1.2-.5-2.1 6.4-16.1l8.8-17.6 10.7 5.7c5.9 3.1 10.6 5.7 10.6 5.8zm23.7 3.1c-1.9 7.1-3.4 13.1-3.4 13.5 0 .5-.3.8-.8.8-1.1 0-10.5-16.1-9.7-16.8.5-.6 16.7-10.1 17.2-10.2 0 0-1.4 5.7-3.3 12.7zm-210.2 3.4c5.4 8.2 9.2 14.6 8.4 14.2-.7-.4-7.5-5.3-15-10.8l-13.8-10 4.7-4.3c2.6-2.3 5-4.2 5.3-4.2.4 0 5.1 6.8 10.4 15.1zm-48.3-11.5c.8.7 16.1 33.7 15.8 34.1-.4.3-27.7-34.3-27.7-35.1 0-.5 11.2.5 11.9 1zm23.3 23.2c.9 9.2 1.5 16.8 1.4 16.9-.1.2-16.1-34.2-17.3-37.4-.3-.8 2.1-.3 6.9 1.3l7.4 2.4 1.6 16.8zm-16.8 7.5c8.7 11 15.6 20.1 15.3 20.3-.2.2-5.3-.5-11.4-1.7l-10.9-2.1-5.6-19.5c-3.1-10.7-5-18.9-4.3-18.2.7.8 8.3 10.3 16.9 21.2zm239.3 7.3c-.6.5-26.6 12.4-27 12.4-.3 0 4.3-8.8 10.1-19.5l10.7-19.6 3.2 13.3c1.7 7.3 3 13.4 3 13.4zm-17.2-16.9c-2.6 4.9-7.5 13.8-10.8 20l-6.1 11.2-8.1-7.7c-4.5-4.2-8.2-8.1-8.4-8.5-.2-.7 36.4-23.7 37.7-23.7.2 0-1.7 3.9-4.3 8.7zm-184.9 14.1c8.3 10.8 15.1 19.8 15 19.9-.2.3-27.1-1.9-27.6-2.3-.4-.5-3.8-31.6-3.9-36.3-.1-1.3.2-2.1.7-1.7.4.4 7.5 9.6 15.8 20.4zm11.6-4.4c11.9 8.6 11.2 7.2 8.4 16.9l-1.1 3.8-12.2-16c-6.8-8.8-12.3-16.3-12.3-16.7 0-.3 1.5.5 3.3 1.8 1.7 1.3 8 5.9 13.9 10.2zm129.2-4c.9 2.7 1.6 5.3 1.6 5.8 0 .4-5 .8-11.2.8h-11.2l8.9-6.5c4.9-3.6 9.2-6.1 9.6-5.7.3.4 1.4 2.9 2.3 5.6zM949.6 209c5.8 5.2 11.8 10.5 13.3 11.8 3.3 2.9 3.6 3.1-14.6-6.7l-15.2-8.2 2.2-3.4c1.2-1.9 2.5-3.4 2.9-3.2.4.1 5.5 4.5 11.4 9.7zm92.9-1.2c-.6.5-6.8 5.3-14 10.7-7.1 5.4-13.5 10.2-14.2 10.7-.6.5-.1-2.8 1.3-7.9 1.4-4.8 2.7-10 3.1-11.6l.6-2.7h12c6.7 0 11.7.4 11.2.8zm-89.2 14.9c8.7 4.7 15.7 8.7 15.5 8.8-.4.4-40.2-5.7-40.7-6.2-.5-.4 1.8-12.2 2.5-13.5.6-.9 1.3-.6 22.7 10.9zm114.7 9.2c-7.1 18.1-8.8 21.6-9.4 19.1-.7-3.4-4.6-34.7-4.6-37.3 0-1.7 1.7-.5 7.9 5.7l8 7.9-1.9 4.6zm-33.2.1c-5 10.4-9.5 19-9.9 19-.4 0-3.3-3.2-6.4-7.1l-5.8-7.2 2.7-2c1.6-1.1 8.5-6.4 15.5-11.8 6.9-5.4 12.7-9.8 12.8-9.8.1-.1-3.9 8.4-8.9 18.9zm-24.7-8l-2.8 9.5-4.2.3c-2.2.2-6 .2-8.3 0l-4.1-.3 10.8-9.8c5.9-5.4 10.9-9.6 11.1-9.4.2.1-1 4.5-2.5 9.7zm42.7 15.2l2.8 22.4-12.6 1.6c-6.9.9-12.7 1.5-12.9 1.2-.2-.2 4.1-11.5 9.5-25.1 5.4-13.6 9.9-24.2 10.1-23.6.2.6 1.6 11.2 3.1 23.5zm32.9-5c-7.8 7.2-15.9 14.7-17.9 16.7l-3.7 3.4 5.1-12.4c2.8-6.8 5.4-12.7 5.7-13.1.7-.8 21.6-7.5 23.8-7.7.7-.1-5.2 5.8-13 13.1zm-168-5.6c4.4.4 5.4.9 5.8 2.7 1.4 5.6 6.3 30.2 6.1 30.4-.1.1-7.8-7.7-17.1-17.3l-16.8-17.6 8.4.7c4.6.3 10.8.8 13.6 1.1zm38.6 5.5c11.1 1.8 20.6 3.5 21.1 4 .8.7-13.3 16.7-15.7 17.7-.6.3-13.9-11.4-26.2-22.9-2.5-2.4-3-2.5 20.8 1.2zm-11.9 22.6c7.5 10 13.6 18.4 13.6 18.6 0 1-21.5-7.2-22.2-8.4-1.1-2-6.8-30.3-5.8-29.3.4.5 6.9 9.1 14.4 19.1zm-19.7 8c-.1.1-3.3-.6-7.1-1.5l-6.8-1.6-5.9-12.1-6-12 13 13.5c7.1 7.4 12.9 13.6 12.8 13.7zm85.9-9.6c-25.2 1.6-36.1 2-35.5 1.5.3-.4 7.9-4.4 16.9-9l16.3-8.4 6.2 7.7 6.2 7.6-10.1.6zm-13.2 11.2l19.8 2.2-10.1 5.4c-5.6 2.9-10.7 5.1-11.4 4.8-.7-.2-6.1-3.7-12.2-7.6-8-5.2-10.3-7.1-8.5-7 1.4 0 11.4 1 22.4 2.2zM302 3c-3.6 1-8.4 2.4-10.7 3-5.1 1.3-5.2 2.1-2.5 14.5 1.7 7.4 1.7 10.2.6 38.5-1 22.4-1 31.7-.2 35.1.9 3.7.6 8.3-1.4 24.6l-2.5 20 3.8 25.7c2 14.1 4.2 27.9 4.8 30.7.9 4.2.5 11.1-2.4 39.8-3.1 30.8-3.3 35.2-2.1 38.7l1.3 3.9h79.5l2.6-6.5 2.6-6.4-2.3-39.1c-1.2-21.4-2.4-40.6-2.7-42.6-.5-3.3-.2-4 2.8-6.2l3.3-2.4 26.5 2.8c27.8 2.9 30.8 2.9 56.6-.6l4-.6-1.9 19.8c-1.7 18.3-1.8 21.5-.5 41.3 1.2 18.7 1.2 22.8-.1 31.7-.8 5.6-1.2 10.5-.9 10.9.4.3 4.6 0 9.5-.8 7.1-1.1 11.7-1.1 23.8-.1 13.7 1 36.1.4 44.3-1.3 2.8-.6 2.8-2.8.6-18.1-1.7-11.1-1.7-11.4.9-32 2.3-18.4 2.7-25.3 3.1-58.8.3-36.9.3-38.4-2-50.4l-2.4-12.3 3-13.8c1.6-7.6 3-16.3 3-19.2 0-2.9-1.1-16.3-2.5-29.8-2.4-23.5-2.4-24.8-.9-31.8 1-4.6 1.3-7.7.7-8.3-.6-.6-8.3.1-20.4 1.9l-19.4 2.9-7.6-2.9-7.5-2.8-11.3 2.9c-6.2 1.7-11.6 3.3-11.9 3.6-.3.3-1.8 9.4-3.3 20.1l-2.8 19.6 4.1 8.1 4 8.1-2.5 22c-1.5 12-2.8 22.1-3.1 22.3-.3.3-4.7-.2-9.9-1.1-11.3-1.9-14.5-2-23.5-.4-5.8 1-10.1.8-27.2-.9-18.3-1.9-20.6-2-22.7-.6-2.8 1.9-2.4 2.8-5.9-15.1l-2.7-13.9 2.1-4.1c1.2-2.3 2.9-7.2 3.9-10.9 1.7-6.7 1.7-7.2-.9-30.4-1.5-12.9-2.9-23.7-3.1-23.9-.2-.2-7.3-1.1-15.8-2-12.7-1.3-16.3-1.3-20.7-.3-5 1.2-6 1.1-13.6-1.4C310.1.6 310.5.6 302 3zm170.9 18.2c-8.9 14.6-10.5 16.7-9.6 12.8.3-1.4 1.1-6.9 1.8-12.3l1.2-9.7 4.1-1.1c2.3-.5 5.2-1.4 6.6-1.9 1.4-.5 2.8-.9 3.3-.9.4-.1-2.9 5.9-7.4 13.1zm14.3 2.4c1 5.9 1.5 11 1.1 11.4-1.1 1-22.3 8-22.3 7.3 0-1 18.4-30.2 18.8-29.8.3.2 1.3 5.2 2.4 11.1zm-135.4 3.6c-2.2 6.2-4.6 12.9-5.3 14.8l-1.4 3.5-.1-3.5c-.1-1.9-.5-7.4-.8-12.3-.4-4.8-.7-8.7-.7-8.7.1-.1 12.1-5 12.2-5 .1 0-1.6 5.1-3.9 11.2zm13.3 9.1c2.7 8.3 4.5 15.5 4.1 15.8-1.1 1.1-21.2 2.2-21.2 1.3 0-1.8 11.4-33.3 11.9-32.9.2.3 2.6 7.4 5.2 15.8zm-52.8-9.5c4.3 1 7.9 2.1 7.9 2.6.2 1-24.6 45.5-25.1 45-.3-.3 6.6-45.5 7.5-48.2.4-1.5.1-1.5 9.7.6zm213.2 22.4c-3.4 11.7-6.6 22.6-7.1 24.1-.9 2.7-1.1 2.5-6.8-7.3-5.8-10-5.8-10.1-4-12.3 2.4-2.8 23.7-25.7 24-25.7 0 0-2.7 9.6-6.1 21.2zm-184.3-2l.5 7.7-5.1 2.1c-2.8 1.2-7.3 3-9.9 4.1l-4.8 1.9 8.8-16.9 8.8-17 .6 5.2c.4 2.9.9 8.7 1.1 12.9zM538.5 52c1 11 1.6 20.2 1.4 20.4-.9.7-17.1 5.8-17.4 5.4-.6-.5 12.8-45.8 13.5-45.8.4 0 1.5 9 2.5 20zm-221 2.1c-1.3 6.1-2.7 11.4-3.1 11.9-3.5 3.2-13.6 11.1-13.9 10.8-.3-.3 18.5-33.8 19-33.8.1 0-.8 5-2 11.1zM489 60.5V77l-8.5-6.6c-4.7-3.7-8.5-7-8.5-7.4 0-.8 15.9-19 16.6-19 .2 0 .4 7.4.4 16.5zm-125.5-1.7c-1.2.9-6.7 5.7-12.3 10.6-5.7 4.9-10.4 8.7-10.6 8.5-.4-.4 4.4-18.1 5.1-18.9.5-.6 9.9-1.7 15.8-1.8 3.9-.1 3.9-.1 2 1.6zm-23.9 3.9c-.3 1-1.5 5.5-2.7 10.1l-2.2 8.3-6.3-6.2c-3.5-3.5-6.1-6.5-5.8-6.8.6-.7 15.5-6.9 16.7-7 .5-.1.6.7.3 1.6zm141.7 14.7c4.3 3.3 7.6 6.5 7.4 7-.3.6-1.9 6.3-3.7 12.6-1.8 6.3-3.5 12.1-3.9 12.8-.7 1.2-1.8-3.1-8.1-31.5-1.2-5.5-1.4-8.1-.7-7.6.7.4 4.7 3.4 9 6.7zm-150.9 7.5c-1.2 1.2-30.3 7.7-29.6 6.6.4-.6 4.3-5.5 8.7-10.8l7.9-9.7 6.8 6.7c3.7 3.7 6.5 6.9 6.2 7.2zM539 79.2c-.1.7-1.1 5.5-2.3 10.7l-2.2 9.4-6.1-8-6.1-8 7.6-2.6c9.1-3 9.1-3 9.1-1.5zm-172.7 13c1.3 7.3 2.4 13.4 2.3 13.5-.2.2-26.6-18.2-26.6-18.7 0-.6 18.9-7.8 20.6-7.9.7-.1 2.2 5.3 3.7 13.1zm106.6 6.3c2.2 9.9 3.8 18.1 3.7 18.3-.2.1-3-1.3-6.3-3.3l-5.9-3.5 1.7-15.2c.9-8.4 1.7-15.5 1.9-15.8.4-1 1.1 1.8 4.9 19.5zm30.4-.4c-.1.4-4.3 4.3-9.2 8.8l-8.9 8.1 3.7-13.9 3.6-14 5.5 5.2c3.1 2.9 5.5 5.5 5.3 5.8zm-145.1 7.1c4.8 3.4 8.5 6.4 8.3 6.8-.6 1-21.3 16-22.9 16.6-.9.3-1.7-4.3-3-16.8-1-9.5-2-18.1-2.3-19.2-.4-1.4.9-.8 5.3 2.4 3.3 2.3 9.8 6.9 14.6 10.2zm-50.3-3.6c5.3.9 10 2 10.4 2.4.5.4-4 5.8-10 12l-10.8 11.3-.6-3.9c-.4-2.2-.9-8.3-1.3-13.7-.7-11.3-2-10.5 12.3-8.1zm207.7 30.9c-1.7 8-3.4 14.5-3.8 14.5-.4 0-.8-4.8-.8-10.8 0-5.9-.3-15.2-.6-20.7l-.6-10 4.4 6.3 4.4 6.2-3 14.5zM405.4 111c5.5.6 10.2 1.2 10.4 1.4.2.3-5 10.6-6.4 12.5-.3.4-20.4-14.9-20.4-15.6 0-.2 1.5-.1 3.3.1 1.7.3 7.7 1 13.1 1.6zm-88 17.6c-2.1 9.9-3.9 18.1-4.1 18.3-.7.9-13.3-12.3-13.3-13.8 0-1.3 20-22.8 20.8-22.5.2.1-1.4 8.2-3.4 18zm140.4-15c.2.1-2.5 6.5-5.9 14.3-3.4 7.8-6.3 14-6.5 13.8-.2-.2-1.5-6.4-2.9-13.8s-2.7-14.3-3-15.4c-.4-2-.3-2.1 8.8-.6 5.1.8 9.3 1.6 9.5 1.7zm39.1 14.1c-2.2 8.2-4.7 17.6-5.5 21.1-1.9 7-1.3 6.7-13.8 7.7-6.6.6-7.7.5-7-.7 1.7-2.8 29.7-42.8 29.9-42.8.2 0-1.4 6.6-3.6 14.7zm-159 7.8c0 1.1-1.5 6.5-3.3 12l-3.2 10-1.2-16.5c-.7-9.1-1.5-18.8-1.7-21.5l-.5-5 4.9 9.5c2.8 5.2 5 10.4 5 11.5zm51.3 3.5l-15.7 9.6-.3-3.6c-.2-1.9-.1-9.4.3-16.6l.7-13.2 15.3 7.1 15.4 7.1-15.7 9.6zm118.2 8.2l.7 16.8-6.9-4-6.9-4 5.6-20.7 5.6-20.8.6 8c.4 4.4 1 15.5 1.3 24.7zm-79-18.7c4.2 6.9 7.6 12.8 7.6 13.1 0 .6-3.5-1.4-15.1-8.8l-7.6-4.8 3.1-6c1.7-3.3 3.4-6 3.7-6 .4 0 4.1 5.6 8.3 12.5zm42.6-8.9c4.6 2.7 6 4 5.5 5.2-.3 1-2.7 6.8-5.3 13.1l-4.7 11.4-.7-8.4c-.7-9.3-1.4-24.9-1.1-24.9.1 0 2.9 1.6 6.3 3.6zm-143.4 43.1c-.1.1-2.6-2.1-5.4-5l-5.3-5.3 3.1-15c1.7-8.2 3.4-15.6 3.7-16.4.4-.8 1.4 8.2 2.4 20 .9 11.8 1.6 21.6 1.5 21.7zm134.3-14.5l.1 7.7-6.7-3c-3.7-1.7-6.9-3.2-7.1-3.3-.1-.2 2.6-6.6 6-14.2l6.3-13.9.6 9.5c.4 5.2.7 13 .8 17.2zm-105.4 0l-6.3 18.3-7.1.3c-3.9.2-7.1 0-7.1-.3 0-.6 26-36.5 26.5-36.5.2 0-2.5 8.2-6 18.2zm52.8-14c.3.7 2.1 5 4.1 9.5l3.5 8.3h-39.3l14.9-9.4c8.3-5.2 15.3-9.5 15.6-9.5.4-.1.9.5 1.2 1.1zm-108 14.8l9.6 5.4-2.2 3.6c-1.1 1.9-4.6 7.4-7.7 12.2l-5.6 8.8-2.5-18c-1.4-9.9-2.2-17.9-1.9-17.8.3.2 4.9 2.8 10.3 5.8zm231.5.6c1.8 3.7 3.2 6.7 3 6.9-1.1.7-19.7 7.1-19.4 6.6 3.1-5.8 12-20.1 12.5-20.1.4 0 2.1 3 3.9 6.6zm-124.9 5.8c-.2.2-7.4 3.3-16 6.8l-15.7 6.5-1.1-5.5c-.6-3.1-1.1-6.1-1.1-6.9 0-1 3.5-1.3 17.2-1.3 9.4 0 16.9.2 16.7.4zm85 23c1.5 8.7 2.3 15.2 1.7 14.4-.6-.8-6.2-7.8-12.5-15.5-6.2-7.8-11.4-14.5-11.5-14.9 0-.5 4.2-1.4 9.4-1.9 8.2-.9 9.5-.8 9.8.5.2.8 1.5 8.7 3.1 17.4zm11.6-10.8l3.1 1.9-3.7 11.5c-2.1 6.3-3.8 11.3-3.8 11-.1-.3-1.2-6.6-2.6-14-3.2-17.3-3.2-16.6.8-14.2 1.7 1.1 4.6 2.8 6.2 3.8zm17.3 6c-5.1 5.8-11 12.5-13 14.7l-3.7 4.2 3.4-10.8c1.8-6 3.6-11.2 4-11.5.6-.7 16.3-6.9 17.8-7.1.5-.1-3.3 4.7-8.5 10.5zm-96-4.4c.5 2.9.9 5.4.7 5.6-.3.3-35.8-2.8-36.2-3.2-.2-.2 27.4-6.3 33.8-7.5.4 0 1.1 2.3 1.7 5.1zM533 183.5c-1.6 9.2-3.1 17-3.3 17.2-.3.2-5.8.2-12.4.1l-12-.3 15.1-17.2c8.2-9.5 15.1-17.1 15.3-16.9.1.1-1.1 7.8-2.7 17.1zm-195.2-1.7l5.1 5.9-8.3 8.2-8.3 8.3 2.4-12.9c2.5-13.4 3-15.3 3.6-15.3.2 0 2.7 2.6 5.5 5.8zm153.6 17.4c1.7 1.4 2.9 2.8 2.6 3-.3.3-6.6 2.6-14 5.3-7.4 2.6-13.9 4.9-14.5 5.1-.6.3-.5-5.8.4-17l1.4-17.5 10.5 9.2c5.7 5.1 11.8 10.4 13.6 11.9zM317.1 193c.9 6.3 1.5 11.6 1.4 11.8-.2.2-4.7-3.9-10.1-9l-9.7-9.4 6.9-2.7c3.8-1.4 7.6-2.5 8.4-2.4 1.1.2 1.9 3.2 3.1 11.7zm47.6-8.8c-.3 1.3-1.6 10.5-2.8 20.5-1.2 10.1-2.5 18.3-2.8 18.3-.3 0-2.6-7.1-5-15.8-2.4-8.6-4.6-16.2-4.8-16.7-.3-.9 12.9-8.3 15.1-8.4.4-.1.6.9.3 2.1zm-13.8 29.3l4.7 17.3-7-4.6-14.1-9c-3.8-2.4-7.2-4.6-7.4-4.9-.3-.2 3.8-4.6 9-9.9 6.5-6.5 9.5-9 9.7-7.9.2.9 2.5 9.4 5.1 19zm-38.6-3.4c3.1 1.6 5.7 3.2 5.7 3.5 0 1.4-23.5 42.2-23.8 41.4-.4-1.1 3.6-44.9 4.4-48.7.4-2.1.5-2.2 4.2-.6 2 .8 6.3 2.8 9.5 4.4zm57.6 34.9v5.5l-3.8-7.5-3.8-7.5 2.2-15.5c1.3-8.5 2.4-15.7 2.5-16 .4-.7 2.8 34.4 2.9 41zm140.6-32.6c-7.7 4.6-14.1 8.3-14.2 8.2-.1-.1 1-3.9 2.4-8.4l2.7-8.2h23.1l-14 8.4zm-30.7 17.5L466.5 251l-.6-7.2c-.4-4-.9-11.4-1.2-16.3l-.5-9 14.1-5.1c7.8-2.8 14.3-5 14.5-4.9.2.2-5.7 9.8-13 21.4zm33.5-3.2c-5.2 8.2-9.9 15.2-10.3 15.7-.5.5-2.5-2.4-4.5-6.4-2.3-4.6-3.3-7.6-2.7-8.2 1.2-1.2 25.5-15.7 26.4-15.7.4-.1-3.6 6.5-8.9 14.6zM354 235.9c0 .6-28.4 15.1-29.5 15.1-.3 0-.5-7.9-.5-17.5v-17.4l15 9.6c8.3 5.3 15 9.9 15 10.2zm180.5-3.7c-.9 6.8-1.7 12.4-1.8 12.5-.1 0-2.6-1.1-5.4-2.6l-5.3-2.6 6.8-10.2c3.7-5.6 6.9-10 7-9.8.2.2-.4 5.9-1.3 12.7zM320 237.7v15.8l-11.1 4.5c-6.1 2.5-11.5 4.6-11.9 4.8-.5.2 4.4-8.9 10.8-20.2 6.4-11.3 11.8-20.6 11.9-20.6.2 0 .3 7.1.3 15.7zm45.5 15.2l4.4 8.9-2.2 1.5c-1.2.8-5 2.8-8.4 4.5l-6.1 3.1 2.9-10.7c1.6-5.9 3.2-11.9 3.6-13.5.3-1.5.7-2.7.9-2.7.2 0 2.4 4 4.9 8.9zm138.8 11.7c1.5 5.9 2.6 10.8 2.5 10.9-.2.1-5.6-.3-12-.8l-11.8-1 6.3-6.9c3.4-3.8 7.3-8.2 8.7-9.8 1.4-1.7 2.7-3 3-3 .3 0 1.8 4.8 3.3 10.6zm30.1-2.4c.4 3.5 1 7.3 1.2 8.5.6 2.4-.5 2.8-12.4 3.9l-7.4.6 8.3-10c4.6-5.6 8.6-9.9 9-9.7.3.3.9 3.3 1.3 6.7zm-209.5 4.7c1.7 4.1 3 7.6 2.8 7.8-.3.2-6.6.2-14.2.1l-13.7-.3 10.8-7.8c5.9-4.2 10.8-7.6 11-7.5.1.2 1.6 3.6 3.3 7.7zM1577.1 30.2l-5.3 29.3-8.2 14c-8.1 13.7-8.3 14.4-13.6 34l-5.3 20-10.8 16.2-10.8 16.2-5.5 18.9-5.4 18.9-12 18.9-11.9 18.9-5.7 20.6c-3.1 11.2-5.6 20.9-5.6 21.4 0 1.5 55.6 1 66.4-.5 16-2.2 14.4-.7 25.1-23.5l9.4-20 13.8-1.4c11.5-1.1 16.9-1.1 32.4-.1 14.5 1 21.8 1.1 33.2.2 8-.7 15.6-1.2 17-1.2 3.9 0 9.3 14.2 12.6 32.8l2.6 14.7 11.4.3c6.4.1 16.2-.4 22.3-1.2 10.6-1.5 11-1.5 21.7.9 12.3 2.8 16.2 3 26.2 1.4 5.9-1 6.9-1.5 6.9-3.2 0-1.1-2.7-12.3-6-24.9l-6-22.7-8.2-13.3c-7-11.4-21.8-37.4-21.8-38.3 0-.2-4.3-9.7-9.6-21.1-5.3-11.5-13-28.6-17.1-37.9-7.3-16.9-7.4-17.1-10.3-36.4l-3-19.3-8-9.2-7.9-9.2-1.1-17c-1.5-22.8-1.6-23.4-4.3-23.4-1.2.1-6.5 1.1-11.7 2.3l-9.5 2.3-11-2.5C1632 3.8 1631 3.7 1620 4.9c-11.1 1.2-11.9 1.2-22.7-1.3-6.1-1.4-12-2.6-13-2.6-1.7 0-2.5 3.1-7.2 29.2zm20.8-21.8c3.4.8 6.5 1.7 6.8 2 .3.3-1.2 10.2-3.3 22-2.1 11.9-3.9 21.4-4.1 21.2-.3-.3-10.3-46.2-10.3-47.2 0-.3 1-.2 2.3.1 1.2.3 5.1 1.1 8.6 1.9zm27.1.3c0 .5-5 10.2-11.1 21.8-6 11.5-10.8 19.6-10.5 18 .3-1.7 1.9-10.6 3.6-19.9 1.6-9.3 3-17.2 3-17.6 0-.4 3-1.2 6.8-1.7 3.7-.6 7-1.1 7.5-1.2.4 0 .7.2.7.6zm19.3 2.4l6.3 1.2-5.6 16.1c-3.1 8.8-5.9 16.8-6.2 17.6-.2.8-1.7-6.4-3.2-16-1.5-9.6-3-18.4-3.3-19.4-.5-1.7-.1-1.8 2.6-1.3 1.7.4 6 1.2 9.4 1.8zm19 6.6c-3.1 4.3-7.9 10.8-10.6 14.6-2.8 3.7-5.1 6.6-5.3 6.4-.4-.3 7.2-22.5 8.4-24.7.5-.8 2.9-2 5.3-2.6 8.3-2.3 8.4-2 2.2 6.3zm11.7 10.7c.6 8.2.8 15.2.3 15.6-.4.5-7.7 2.6-16.1 4.8l-15.2 3.9 2.3-3.1a2263 2263 0 0014.6-19.9c6.8-9.2 12.5-16.7 12.6-16.5.2.2.8 7 1.5 15.2zm-81.3 35.2c-.5.6-16-2.7-17-3.6-.4-.4 1.1-10.5 3.3-22.5 2.2-11.9 4-22 4.1-22.4.1-.3 2.3 10.4 5.1 23.7 2.7 13.4 4.7 24.6 4.5 24.8zm38.8-26.8c1.5 9 2.5 16.9 2.2 17.6-.4 1.1-11.5 5.1-12.2 4.4-.2-.2 1.3-9 3.3-19.5 1.9-10.6 3.7-19.2 3.8-19 .1.1 1.4 7.6 2.9 16.5zm-12 5.1c-1.8 10.1-3.5 18.4-3.7 18.6-.7.5-13.3 3.3-13.6 3-.2-.2 4.2-9.4 9.9-20.4 5.7-11 10.4-19.9 10.6-19.7.1.1-1.3 8.5-3.2 18.5zm45.3 17.9c-3.5 5-6.5 9.1-6.8 9.2-.9 0-13.5-9.4-14-10.5-.4-.7 25.8-8.6 26.8-7.9.2.1-2.5 4.3-6 9.2zm23.8 3.8c1.4 2 1.2 2.7-3.2 10-2.6 4.4-5.1 8.3-5.6 8.9-.4.5-.8-6.1-.8-14.6l.1-15.4 4 4.5c2.2 2.5 4.7 5.5 5.5 6.6zm-13.6 6.6v16.2l-6.5-6.4c-3.6-3.5-6.5-6.8-6.5-7.3 0-.7 12.2-18.6 12.8-18.7.1 0 .2 7.3.2 16.2zm-43.5.5c-1.3 6-2.5 11.7-2.7 12.8-.2 1.2-1.9-2.5-4.1-8.9-2-6-3.6-11-3.4-11.1.8-.4 10.4-3.3 11.3-3.4.8-.1.5 3.3-1.1 10.6zm23.5 3.8c0 1.3-7.8 30.3-8.7 32.5-.5 1.2-6.1-37.4-6.3-43.3 0-1.4 1.8-.4 7.5 4 4.1 3.1 7.5 6.2 7.5 6.8zm-70.3-7.7c3.9 1 7.5 2 7.8 2.4.4.4-1.5 7.2-4.1 15.2-2.7 8-4.9 14.4-5 14.3-.4-.3-7.4-31.5-7.4-32.7 0-1.3.1-1.3 8.7.8zm-9.2 18.2c1.9 8.4 3.3 15.5 3.1 15.8-.4.3-15.2-9.5-18-11.9-.5-.5 1.6-5 4.8-10.4 3.2-5.3 6-9.5 6.2-9.3.2.2 1.9 7.3 3.9 15.8zm49.7 8.1c-1.1 1.1-11.2 5.2-11.6 4.8-.2-.2.8-6.4 2.2-13.8l2.5-13.4 3.8 10.9c2.1 6 3.5 11.2 3.1 11.5zm15.5 14.7c-.1.7-2.3-2.3-4.9-6.6l-4.8-8 2.1-9.3c1.1-5.2 2.3-10.3 2.6-11.4.7-1.9 5.5 32.5 5 35.3zM1612 86c-1.5 7.2-3 13.4-3.4 13.8-.9.8-16.9 4.2-17.5 3.7-.3-.4 22.7-30.5 23.4-30.5.1 0-1 5.9-2.5 13zm58.9 19.9c-2.4 7.2-4.6 12.7-5 12.3-.3-.4-1.2-7.2-1.8-15.2-.7-8-1.5-16.5-1.8-19l-.5-4.5 6.7 6.6 6.7 6.6-4.3 13.2zm-9.1 20.7c-.6.5-11.6-5.4-12.3-6.6-.4-.7 6.4-27.5 8.2-32 .4-.8 1.5 7.4 2.5 18.3 1.1 10.9 1.8 20 1.6 20.3zm-91.7-25.4c4.9 3.4 8.9 6.5 8.9 6.9 0 1-14.2 16.1-14.7 15.6-.3-.4-4.3-26-4.3-28 0-1.3 1.1-.7 10.1 5.5zm113.8 2.9c2.4 3.4 3.9 6.4 3.5 6.8-5.9 5-16.6 13.2-16.9 12.9-.6-.6 7.8-25.8 8.5-25.8.3 0 2.5 2.7 4.9 6.1zm-59.5-.4c-.8 2.7-2.6 8.8-4.1 13.6-1.6 5.1-3 8.2-3.4 7.5-.8-1.5-3.4-20-3-20.8.4-.5 10.1-4.8 11.3-4.9.4-.1 0 2-.8 4.6zm-64.4 22.5c0 1.5-.9 1.8-5.4 1.8h-5.4l3.6-14 3.7-14.1 1.7 12.3c.9 6.8 1.7 13.1 1.8 14zm90 19.2c3.4 12.6 6.4 23.4 6.6 24 .3.7-4.8 1.9-14.5 3.5l-15 2.3-13-2.3-13.1-2.2 6.2-11.6c3.4-6.4 7.3-13.6 8.8-16.1 1.4-2.5 5.2-13.2 8.5-23.8l5.8-19.2 6.8 11.3c6.5 10.8 6.9 12 12.9 34.1zm-67-26.1c0 3 .3 10.9.7 17.7l.6 12.3-9-9.9-9.1-9.9 7.6-7.8c4.2-4.2 8-7.7 8.4-7.7.5 0 .8 2.4.8 5.3zm121.2 4.9l3.7 3.3-2.8 17.5c-3.2 19.7-2.7 20.1-6.6-6-1.4-9.1-2.8-17.8-3.1-19.4l-.6-2.9 2.8 2.1c1.6 1.2 4.6 3.6 6.6 5.4zm-30.9 15.7c-5.4 10.4-9.9 18.9-9.9 18.8-.1-.1.6-5.7 1.5-12.5l1.6-12.3 7.9-6.5c4.3-3.5 8.1-6.4 8.3-6.4.2 0-4 8.5-9.4 18.9zm11 5.4l-2.7 19.4-7.9 1.7c-4.3 1-8.1 1.5-8.4 1.2-.3-.2 4.4-9.9 10.4-21.4 5.9-11.6 10.9-20.9 11.1-20.7.2.1-.9 9-2.5 19.8zm11.7 7c1.6 10.8 3 19.9 3 20.1 0 .3-2.9-1.2-6.5-3.2-6.2-3.5-6.6-3.9-6.1-6.7.3-1.7 1.5-10.7 2.7-20 2.6-19.5 2.3-20 6.9 9.8zm-90.2-18.1l5.9 3.3-10 6.3c-5.5 3.5-9.7 5.7-9.5 5 .3-.7 1.7-5 3.3-9.6 1.6-4.5 3.2-8.2 3.7-8.2.4 0 3.4 1.5 6.6 3.2zm115.6 22.7l9.5 21.3-4.2-.6c-2.3-.3-8.2-.9-13-1.2l-8.9-.7.6-3.1c.3-1.7 1.7-10.9 3.2-20.4 1.5-9.5 2.8-17.1 2.9-17 .2.2 4.6 9.9 9.9 21.7zm-176.6 7l-.3 9-6-4.6c-3.3-2.4-6.9-5.1-7.9-5.8-1.8-1.4-1.5-2 6-13.4l7.9-12 .3 9c.1 4.9.1 12.9 0 17.8zm33.3-13.8l5.8 6.6-3.2 7.6c-1.7 4.2-3.4 7.7-3.8 7.7-.3 0-2.5-7.2-4.7-16.1-4.5-18.1-4.8-17.8 5.9-5.8zm-40.8 23.2c3.7 2.7 6.6 5.5 6.4 6.1-.2.6-2.4 8.2-4.7 16.8-2.4 8.7-4.7 15.5-5.1 15-.3-.4-1.6-9-2.8-19.2-1.2-10.2-2.5-20-2.8-21.9-.7-4-.9-4 9 3.2zm150.6 12.6c2.9 7.9 5 14.5 4.8 14.7-.1.2-6.5-5.9-14.1-13.5l-13.9-13.9 8.4-2c6-1.3 8.6-1.6 9-.8.4.6 3 7.6 5.8 15.5zm-160.5 11.6c1.2 10.2 1.9 18.2 1.6 17.8-.4-.5-3.3-4.5-6.4-8.9l-5.6-8.1 1.6-5.4c4.8-16.7 5.8-19.4 6.2-16.7.2 1.5 1.3 11.1 2.6 21.3zm72.7-9.6l3.6 11.9-10.9-9.1c-6-5-10.5-9.4-10.1-9.8 1-.8 11.4-4.8 12.8-4.8.6-.1 2.6 5.3 4.6 11.8zm56.5-8.7c-.3 1.3-.8 6.7-1.1 12-.4 5.4-1.1 9.8-1.5 9.8-1.2 0-21.4-7.2-22.2-7.9-.7-.6 22.7-15.9 24.5-16 .4-.1.5.9.3 2.1zm35.1 29.4c-.1.1-7.4-1.2-16.2-3l-16-3.2.2-6c.1-3.2.5-8.8.8-12.3l.7-6.4 15.4 15.4c8.4 8.4 15.2 15.4 15.1 15.5zm-75.8-18.7l4.4 3.6-5.4 4.7-5.4 4.8-1.1-3.8c-.6-2-2.3-7.4-3.7-12l-2.6-8.3 4.7 3.7c2.6 2.1 6.7 5.4 9.1 7.3zm106.4-9l6.8.6-12.3 11.6c-6.8 6.3-12.9 11.9-13.6 12.3-1.3.8-1.2-4.3.4-20.2l.5-5.2 5.7.1c3.1.1 8.8.4 12.5.8zM1558 210.4c-2.4 7.5-4.6 13.4-4.8 13.2-.1-.2-.9-7.1-1.7-15.2-.8-8.2-1.7-17.2-2-19.9l-.6-5 6.8 6.7 6.7 6.8-4.4 13.4zm29.6-17.4c5.7 4.9 10.2 9 9.9 9-1.8 0-26.2-6.4-26.9-7.1-.8-.7 4.9-10.9 6-10.9.3 0 5.2 4 11 9zm143.2 5.5c-.5 6.6-1.1 12.1-1.3 12.3-.1.1-5.6.1-12.2 0l-12-.3 13.1-12.1c7.2-6.7 13.2-12.1 13.3-12 .1.1-.3 5.5-.9 12.1zm-181.9 31.3l.1 2.4-5.7-3.2c-3.2-1.8-6.1-3.5-6.5-3.9-.7-.6 1.9-11 7.3-30.1 1.2-4.4 1.3-4 3 14 1 10.2 1.8 19.6 1.8 20.8zm88.8-29.1l11.3 3.7-16.2 4.8c-8.9 2.6-16.3 4.6-16.4 4.5-.3-.4 9-16.7 9.5-16.7.3 0 5.6 1.7 11.8 3.7zm-51.6 14.5c17.4 12.8 17.3 12.4.7 13l-9.1.3-2.4-7.5c-4.5-14.4-5.2-17-4.8-17 .3 0 7.3 5 15.6 11.2zm-17.1 1.3c1.7 5.5 3.3 10.7 3.6 11.6.4 1.4-1 2-6.8 3.4-4 .9-8.1 1.9-9 2.1-1.4.4-.9-1.8 2.8-12.8 5.3-16 5.5-16.6 6-15.3.2.5 1.7 5.5 3.4 11zm-57 2.3v10.8l-7.7 1.7c-4.2.9-7.8 1.5-8 1.4-.3-.3 15-24.7 15.5-24.7.1 0 .2 4.9.2 10.8zm170.8-7.4l11.3 2.1-7.9 5.6-8 5.7-1.8-2.4c-1.1-1.3-4.3-5.1-7.3-8.4l-5.4-6.2 3.9.8c2.1.4 9 1.6 15.2 2.8zM1530 229.5c0 1.3-5.1 34-5.4 34.2-.3.3-6.8-27.3-7-29.6-.1-.9 2-2.1 5.4-3.2 6.2-1.9 7-2.1 7-1.4zm19.4 12.9c-.2 2.3-.7 7.7-1 12.1l-.7 8-4.8-14.5c-2.7-7.9-4.9-14.8-4.9-15.3s2.6.6 5.9 2.4c5.8 3.2 5.8 3.2 5.5 7.3zm-42.4-6.8c0 .6-21.1 28.4-21.5 28.4-.4 0 6.3-25.1 6.8-25.6.4-.4 11.7-3.2 13.5-3.3.6-.1 1.2.2 1.2.5zm63-.2c0 .6-16.9 27.9-17.7 28.6-.3.3-.3-2 0-5 .4-3 .9-8.9 1.3-13.1l.6-7.6 7.2-1.5c8.6-1.9 8.6-1.9 8.6-1.4zm-24.3 37.1c-.4.4-17.2 2.2-17.5 1.9-.4-.3 4.7-33.1 5.5-35.4.3-.8 3.2 6.3 6.4 15.9 3.2 9.6 5.8 17.5 5.6 17.6zm-23.9.6c-.2.3-4.2-.3-8.9-1.4l-8.7-2 5.1-15 5-15.1 3.9 16.4c2.1 9.1 3.7 16.7 3.6 17.1zm-18.4-16.5c-2 6-4.2 11.4-4.8 12.1-.6.6-3.7 1.8-6.9 2.6-5.7 1.5-5.8 1.5-4.5-.4 3.4-4.8 19.3-25.6 19.5-25.5.2.2-1.3 5.2-3.3 11.2zm251.3 6.1c1.2 7.1 2 13 1.8 13.2-.3.2-4.4-.5-9.3-1.5l-8.9-1.9 6.5-11.3c3.6-6.1 6.8-11.2 7.1-11.2.4 0 1.6 5.7 2.8 12.7zm-25.7.1c1.3 4.5 2 8.5 1.6 8.9-.7.7-12.7 2.5-13.3 1.9-.2-.2 1.5-4.9 3.8-10.5s4.5-9.8 4.9-9.4c.4.4 1.7 4.5 3 9.1zM124 3.6c-4.1.7-13.8 1.6-21.6 2l-14 .7-10.2 8.6c-5.5 4.8-19.5 15.4-31 23.6l-20.8 15L16.2 76c-5.6 12.4-11.3 26.5-12.7 31.5C.9 116.3.9 117 .9 146l.1 29.5L5.1 189c2.8 9.1 7.2 20.1 13.9 34l9.7 20.5 8.6 4.5c8.3 4.3 8.8 4.8 11.9 11l3.3 6.4 26.1 8.7 26.2 8.7 22.8 1.2c12.6.7 29.9 1 38.4.7l15.5-.6 20.3-10.2 20.3-10.3 17.2-19.4c9.5-10.7 17.3-19.9 17.5-20.6.2-1-16.6-26.4-19.7-29.9-1.1-1.1-35.3-12.8-36.6-12.5-.7.2-5.4 5.2-10.5 11.3l-9.3 11-15.1 5.3-15.1 5.4-14.8-2.6c-12.2-2.2-16.9-3.5-26.7-7.8l-11.9-5.1-2.7-8.1c-1.5-4.5-5.8-15.7-9.6-25l-7-17 4.8-23.9 4.7-23.9 9.1-6.8c13-9.7 28.6-17.3 40.9-19.8l9.8-2 19.2 8.9c18.8 8.7 19.3 9 25.5 15.9 3.5 3.8 7.2 7 8.2 7 .9 0 4.6-2.3 8.1-5.1s10.7-7.3 16-10c7.8-3.9 10.3-5.7 13.2-9.6 1.9-2.6 7.2-7.5 11.6-10.7 4.5-3.3 8.1-6.7 8.1-7.5 0-.9-3.8-5.1-8.5-9.4-8.3-7.6-8.5-7.9-7.9-11.5l.5-3.7-19.7-11.8-19.7-11.8-19.6-4.5c-10.8-2.5-21.6-4.7-24.1-4.9-12.5-1.1-27.2-1.1-34 .1zm7 10.1c0 3.8.2 9.9.5 13.8l.5 7-6-12c-3.2-6.6-6-12.3-6-12.6 0-.6 5.6-2 10.3-2.8.4 0 .7 2.9.7 6.6zm23.8-6.1c2.9.6 3.1.9 6.1 13.1 1.8 6.9 3 12.7 2.8 12.9-.2.2-5.8-5.7-12.5-13.1L138.9 7h6.4c3.6 0 7.8.3 9.5.6zm-34.7 14c3.3 7 5.8 12.8 5.7 12.9-.2.1-7-5.3-15.1-12.1L95.9 10.1l4.3-.4c2.4-.2 6.5-.4 9.1-.5l4.8-.2 6 12.6zM161 39.3l2 2.5-13.1.7c-7.1.4-13.3.5-13.6.2-.3-.4-.8-7.7-1.1-16.3l-.5-15.7 12.1 13c6.7 7.2 13.1 14.2 14.2 15.6zm29.5-8.5c-.2.3-4.9 2.4-10.3 4.7l-9.9 4.2-3.2-13.1c-1.7-7.2-3.1-13.5-3.1-13.9 0-.5 6.1 3.3 13.5 8.4 7.4 5.1 13.3 9.4 13 9.7zm-79.2-1.7c9.5 7.8 17.6 14.5 18.1 15 .8.7-1.8 4.5-18.3 26.8l-5.5 7.5-3.8-19.5C94.7 22.5 93.3 15 93.7 15c.2 0 8.1 6.4 17.6 14.1zm119.6 13.5c1.2 1.1.4 1.8-5.3 4.4-3.7 1.6-7.1 3-7.6 3-.6 0-7.4-15.1-11.1-24.7-.6-1.6 2.7.5 10.9 6.8 6.4 5.1 12.3 9.8 13.1 10.5zm-137 0c1.9 9.7 3.5 18.6 3.8 19.8.2 1.1-2.1-2.6-5-8.4l-5.5-10.5 1.1-9.3c.6-5 1.3-9.2 1.7-9.2.3 0 2.1 7.9 3.9 17.6zm-18.1-6.9l4.9 6.8-20.1 4.2c-11 2.3-20.2 4-20.4 3.8-.4-.4 29-21.5 30-21.5.3 0 2.9 3 5.6 6.7zm117.6 4c-1.2 7.2-7.5 38.8-7.8 39-.2.3-12.2-30.1-12.8-32.5-.3-1 17.8-10 20.5-10.2.4 0 .5 1.7.1 3.7zm12.5 6.6c3.8 4.7 5.9 8.2 5.4 9-.7 1.2-20.5 23.7-20.8 23.7-.1 0 1.7-9.5 3.9-21 2.2-11.6 4.3-20.7 4.7-20.3.4.5 3.5 4.3 6.8 8.6zm-43.5.9c-3 4.8-13.9 17.7-14.5 17.1-.4-.5-2.8-4.4-5.3-8.8l-4.6-8 5.3-.6c10.4-1.2 19.9-1 19.1.3zm-97.5 6.9c-24.5 17-25.1 17.3-26.6 15.3-2.2-2.8-6.5-11.5-6-12 .3-.4 36.5-8 39.1-8.3.5-.1-2.4 2.2-6.5 5zm108.6 7.1c2.6 6.8 5.6 14.4 6.6 17.1L182 83l-3.3-1.4c-1.7-.7-8.5-3.7-14.9-6.6L152 69.8l1.8-2.3c.9-1.3 4.4-5.9 7.7-10.4 3.3-4.4 6.3-8 6.6-8.1.3 0 2.8 5.5 5.4 12.2zM86.3 88.3c-8 2.6-14.8 4.6-15 4.4-.3-.3 11-34 13.4-39.7.3-.9 3.5 4.6 8.3 14.5l7.8 16-14.5 4.8zM64 69.2c-6.1 8.4-12.1 16.6-13.4 18.3l-2.4 2.9-3.1-6.3c-1.8-3.4-3.1-6.9-2.9-7.7.2-1 30.9-22.1 32.5-22.4.2 0-4.7 6.9-10.7 15.2zm7.3 8c-3.1 9-5.9 16.6-6.3 17-.3.4-3.2.4-6.4 0l-5.7-.7 11.6-16.3c6.4-8.9 11.8-16.2 12-16.2.2 0-2.1 7.3-5.2 16.2zm140.1-1.1c-.9 7.3-1.8 13.6-2 13.8-.2.2-4.5-.4-9.5-1.5l-9.2-1.9 10.9-12.1c6-6.7 11-12 11.1-11.9.1 0-.5 6.2-1.3 13.6zm12.4-2.4c2.3 3.9 4.2 7.4 4.2 7.7 0 .3-3.2 2.2-7.1 4.1-5.8 3-7 3.3-6.6 1.8.3-1 .8-5.4 1.2-9.8.3-4.4.9-9.5 1.2-11.3.6-3.8.5-4 7.1 7.5zM35 75.4c0 2.2-11.5 33-11.8 31.6-.1-.9 1.1-10.7 2.8-21.8 1.6-11.1 3-20.5 3-20.9 0-1.2 6 9.9 6 11.1zM19.9 97.2c-1.7 12.2-3.5 22.6-3.8 23-.4.4-1.8-3.9-3.2-9.5l-2.5-10.3 6-13.2c3.3-7.2 6.1-13 6.4-12.8.2.2-1.1 10.5-2.9 22.8zm22-8.5l3.1 6.2-10.5 13.2c-5.8 7.3-10.5 13-10.5 12.7 0-.7 12.9-36.9 13.6-38 .8-1.2.6-1.4 4.3 5.9zm21.8 10.7c.1.1-1.4 8.8-3.5 19.4l-3.7 19.1-3.1-20-3-20 6.5.7c3.7.3 6.7.7 6.8.8zm18.9 1.8c.4.4-4.7 27-6.2 32.8-.5 1.7-1.6-2.6-3.5-14-3.7-22.4-4.1-20.4 3.2-19.7 3.3.3 6.2.7 6.5.9zm-38.2 5c-.9 5.4-6.4 47.1-6.4 48.4 0 .9-4.1-3.3-9-9.1-7.9-9.3-8.9-10.9-7.8-12.4 1.9-2.6 23.1-29.1 23.3-29.1.1 0 .1 1-.1 2.2zm28.2 40.4c0 .1-3.2.5-7 .9-6.8.7-6.9.7-6.3-1.7.3-1.2 2-10 3.8-19.3l3.3-17 3.2 18.5c1.7 10.2 3.1 18.6 3 18.6zM50.9 130c1.2 8.5 2.4 16.2 2.7 17.2.3 1.1-1.2 2.6-5.3 5.2-3.1 1.9-5.8 3.4-6 3.2-.2-.2.9-9.8 2.4-21.4 1.5-11.6 3-20.8 3.4-20.4.3.4 1.6 7.7 2.8 16.2zM9.6 147.9c-2.2 7.1-4.2 12.5-4.3 12.2-.1-.3-.3-8.2-.6-17.4l-.4-16.9 4.7 4.7 4.7 4.7-4.1 12.7zm20.4 6.7l5.8 7-10.6 15.7c-5.8 8.6-10.7 15.5-10.8 15.4-.2-.1.6-11.3 1.6-24.7 1.1-13.5 2-25.2 2-26 .1-1.6 1.3-.2 12 12.6zm44.4 8.1c1.9 31.4 1.9 29.2.1 25.3-2-4.3-14.5-35-14.5-35.6 0-.2 3.1-.4 6.9-.4h6.8l.7 10.7zm-11 11.7c4.2 10.4 7.5 19 7.3 19.1-.5.5-26-29.8-26.1-31-.1-1.6 9.6-8.6 10.6-7.7.3.4 4 9.2 8.2 19.6zm-5 13.1l15.7 18-11.3 1.1c-6.2.7-12.9 1.2-14.9 1.3l-3.6.1-.7-7.3c-1-12.4-1.9-32.2-1.4-31.7.3.3 7.6 8.6 16.2 18.5zm-25.7 14.8L29.5 233l-7.6-15.2-7.6-15.2 10.6-15.7c5.8-8.6 10.7-15.6 10.8-15.5.1.1-1.2 14-3 30.9zm189.8-9.5c11.3 4.2 10.6 3.2 12 18l.7 7.6-12.1-14.2c-6.7-7.7-12.1-14.4-12.1-14.7 0-.8 1.1-.5 11.5 3.3zm-15.7 13.3l5 14.6-7.6-1.4c-13.7-2.4-12.6-.6-8.1-14.1 4.9-14.5 4.9-14.6 5.3-14.1.2.2 2.6 7 5.4 15zm17.6 7.8l8 9.4-7.5-.7c-4.1-.4-7.4-.8-7.5-.9 0-.1-1.9-5.4-4.2-11.7-2.2-6.3-4.4-12.4-4.8-13.5-.9-2.1 3.3 2.4 16 17.4zm-143.1 1.2c2.1 3.4 3.6 6.3 3.4 6.5-.3.4-25.4-7.8-28.7-9.3-.8-.4 3.5-1.2 9.5-1.9 6.1-.6 11.2-1.2 11.5-1.2.3-.1 2.2 2.6 4.3 5.9zm18.4-3.9l11.4 1.1-9.2 5.4c-5 2.9-9.3 5.3-9.5 5.3-.3 0-4.8-6.9-7.8-11.8-.9-1.5.5-1.5 15.1 0zm33.9 19.5c-.1.1-8.1-1-17.8-2.5l-17.6-2.6 10.1-5.8 10.2-5.7 7.6 8.2c4.3 4.5 7.6 8.3 7.5 8.4zm-60.8-7.6l16.4 5.4-.6 4c-.3 2.2-.8 6.6-1.2 9.8l-.6 5.7-10.1-9.2c-16.6-15.4-23.3-22-21.7-21.5.8.2 8.8 2.8 17.8 5.8zm96.8-3.4l7.9.6-15 4.8c-8.2 2.6-15.1 4.6-15.3 4.4-.2-.1.8-2.6 2.2-5.4 2.6-5.1 2.7-5.1 7.5-5.1 2.6 0 8.4.3 12.7.7zm41.1 5.6c.1.2-2.5 4.3-5.9 9.1-3.5 4.7-6.4 8.3-6.5 7.9-.1-.4-1.5-5.3-3.1-10.9l-2.9-10.1 9 1.9c5 1 9.2 2 9.4 2.1zM58.9 241.7c11.8 19.3 11.7 18.1.9 12.7-5.1-2.5-9.4-4.7-9.5-4.8-.1-.1-.9-4.9-1.8-10.7-.8-5.7-1.7-12-2-13.9l-.6-3.5 2.6 3.7c1.4 2.1 6.1 9.5 10.4 16.5zm132-8.5c1.7 6.1 3 11.3 2.8 11.4-.1.1-9.9-2.1-21.7-5-11.8-2.9-20.8-5.6-20-6 3-1.2 33.5-11.4 34.6-11.5.7-.1 2.6 4.9 4.3 11.1zM74.8 244.1c10.2 9.5 10.3 9.7 4.8 14.8-1.6 1.5-3 2.1-3.5 1.5-.4-.5-4.8-7.4-9.6-15.4s-9.5-15.6-10.4-17c-1.6-2.6 1.7.2 18.7 16.1zm40.1-11.5c16.5 2.6 17.3 2.8 14 4-1.9.6-11.2 3.9-20.8 7.3L90.8 250l.5-3.3c.4-1.7.9-6.5 1.3-10.5.6-6.8.8-7.3 2.8-6.8 1.1.2 9.9 1.7 19.5 3.2zm51.4 10.6c11.4 2.9 20.7 5.5 20.7 5.8 0 .3-9.7 3.5-21.5 7.1l-21.5 6.6v-12.4c0-6.7.3-12.3.8-12.3.4-.1 10 2.3 21.5 5.2zm54.3.5c-.3 2.1-.9 6.2-1.2 9-.4 2.9-.9 5.3-1.2 5.3-.2 0-3.8-2.1-7.9-4.7l-7.5-4.7 8.3-4.2c4.6-2.4 8.8-4.3 9.3-4.3.5-.1.6 1.6.2 3.6zm-101.3 16.2l-13.7 17.9-11.3-5.6c-6.2-3.1-11.3-5.9-11.3-6.3 0-.6 47.9-23.9 49.2-23.9.4 0-5.4 8.1-12.9 17.9zm20.7-7v10.8l-11.7 5.2c-6.5 2.8-12.2 5.1-12.6 5.1-.8 0 23.2-32 23.9-32 .2 0 .4 4.9.4 10.9zm52 .6c0 .3-3 6.1-6.6 13l-6.6 12.3-4.2-1.8c-15.3-6.6-23.2-10.2-23.9-10.9-.4-.4 8.2-3.5 19-6.8 19.9-6.1 22.3-6.7 22.3-5.8zm15.1 3.7c3.8 2.4 6.9 4.5 6.9 4.8 0 .8-18.2 10.1-18.7 9.6-.8-.8 3.4-18.6 4.3-18.6.4 0 3.7 1.9 7.5 4.2zm-61.7 17.4c2.1 3.1 3.5 5.8 3.3 6-.3.3-7.5.2-16.1-.2-8.6-.4-15.4-1-15.1-1.3.7-.6 22.7-10 23.6-10.1.3 0 2.3 2.5 4.3 5.6zM1362.9 13.7c-8 9.2-9 10.9-16.4 27.7-6.5 14.7-8.4 18-10.5 18.8-2 .7-3.7 3.7-9.4 16.9-4 9.4-7.6 16.4-8.7 17-1.1.5-3.9 3.9-6.3 7.5l-4.4 6.6-4-6.9c-2.2-3.7-7.9-13.7-12.7-22.1-6.7-11.7-10.7-17.5-16.9-24.1-6.8-7.4-9.1-10.9-14.5-21.7-5.2-10.5-7.6-14.1-12.9-19.7-7.8-7.9-7-7.8-27.6-4.5l-13.8 2.1-9.2-2.1c-5-1.2-10.4-2.2-12.1-2.2-1.6 0-7.5 1.7-13.1 3.7l-10.1 3.7-.7 12.1c-2.2 40.7-2.1 45.9 1.9 85.6l3.8 37.6-3.7 14.9c-2.1 8.7-3.6 17.4-3.6 20.9 0 7.2 2.7 34.2 4 40.5.5 2.5.9 15.9 1 29.7V281h2.5c1.4 0 7.7-1.1 14-2.5l11.5-2.5 5.6 2.5c6.7 3 7.2 3 33.8.8l20.9-1.7-.6-13.3c-.6-12.3-1.1-15.1-7.3-38l-6.7-24.8 1.2-16.5c1.1-15.4 3.9-46.5 4.4-48.3.1-.5 4 6.5 8.7 15.5 7.8 15.2 9.1 17.2 20.4 29.7 6.6 7.3 16.3 17.3 21.6 22.2l9.5 8.9h16.1l13.4-15.5c13.3-15.4 13.4-15.5 18.1-27.7 3.5-9.3 6.6-15.2 12.7-24.1 4.4-6.5 8.2-11.5 8.5-11 .2.4 1.2 3 2 5.8 1.6 4.7 1.5 6.4-1.1 32-2.8 26.7-2.8 27.3-1.6 54 .7 14.8 1.3 32.7 1.3 39.7l.1 12.8h2.8c1.5-.1 9.2-.7 17.2-1.4l14.5-1.4 10.7 2.9 10.8 3 11.1-3c6.1-1.6 11.4-3.2 11.7-3.5.2-.3 1.1-13.1 2-28.4l1.4-27.8-3.6-7.2c-2-3.9-3.6-7.7-3.6-8.4 0-.7 2.3-9.9 5.1-20.4l5.1-19.1-5.4-25.6-5.4-25.7 2.3-14.2c2.8-17.5 3.1-40.6.7-56.1-.9-6.3-1.4-15.1-1.3-23.2.3-15.2 2.2-14-15.7-10.5l-12.2 2.4-5.3-2.3c-4-1.7-9.3-2.7-19.9-3.7-25-2.3-22.3-3-32.1 8.3zm30.7-3.9l8.1.7-10.1 13.2c-5.5 7.3-10.4 13.2-10.7 13.3-.4 0-.9-1.9-1.2-4.3-.4-2.3-1.5-8.8-2.5-14.4L1375.3 8l5.1.6c2.8.3 8.8.9 13.2 1.2zm-163.2 3.4c-.4.7-3.3 4.7-6.4 8.8-3.2 4.1-6.5 8.7-7.5 10.2-.9 1.6-2 2.8-2.4 2.8-1 0-7.4-18-6.7-18.8.8-.7 17.2-3.9 21.4-4.1 1.6-.1 2.1.3 1.6 1.1zm4.4 13.9c-6.2 3.2-11.6 5.8-12.1 5.8-.4.1 2.8-4.6 7-10.4l7.8-10.5 4.3 4.7 4.4 4.7-11.4 5.7zm139.1-2.7c1.2 6.6 1.9 12.1 1.8 12.3-.2.2-3.8-2.5-8-5.9l-7.5-6.2 5.5-6.3c3.1-3.5 5.7-6.2 5.9-6 .1.1 1.2 5.6 2.3 12.1zm-203 10.2c-4.5 11.5-8.3 21-8.4 21.2-.4.4.4-17 1.4-28.8l.6-8.5 7-2.6c3.9-1.4 7.1-2.5 7.3-2.4.1.1-3.4 9.6-7.9 21.1zm12.1 18.2c.6 16.7.9 30.6.6 30.9-.5.6-20.6-13.6-20.6-14.5 0-1.2 18.5-48.2 18.7-47.4.1.4.7 14.4 1.3 31zm10-13.5c0 3.5-4.3 25.2-5.1 26.1-.5.6-.9-3.8-.9-10 0-6-.3-16.1-.6-22.4l-.5-11.5 3.5 7.9c2 4.4 3.6 8.8 3.6 9.9zm30.8 28.1c-11.1 21.2-20.4 38-20.6 37.3-.3-1.7 11.6-60.9 12.5-61.8 1.3-1.3 27.7-14.8 28.1-14.4.2.2-8.8 17.7-20 38.9zm36.6-19.3c-.8 1.3-18.4 14.9-18.4 14.2 0-.4 2.1-8.1 4.7-17.2l4.7-16.4 4.7 9.4c2.6 5.2 4.5 9.7 4.3 10zm-51.6-5.7c.1.2-3.5 6.9-8 14.9-4.5 8.1-8.4 14.5-8.6 14.2-.2-.2.9-7.2 2.4-15.5l2.9-15.2 5.5.7c3 .4 5.6.8 5.8.9zm30 13.6c-3 11-3.6 12-11.6 23-4.7 6.3-9.2 12.2-10 13-.8.8 2.8-6.8 8.1-17 13.3-25.6 16.1-30.9 16.4-30.6.1.1-1.2 5.3-2.9 11.6zm207.4-5.6l.3 4.8-9.5 4.2c-5.2 2.3-10.4 4.6-11.5 5-1.1.4 2.7-4 8.5-9.8 5.7-5.8 10.7-10.2 11.1-9.8.4.4.9 2.9 1.1 5.6zm-28.4 10.1c-.7.7-30.8 8.3-30.8 7.8 0-.6 12.1-15.4 16.3-20l3-3.2 5.9 7.5c3.3 4.2 5.8 7.7 5.6 7.9zm-143.7 2.7l3 3.7-5.7 8.6c-3.1 4.7-5.9 8.4-6 8.2-.2-.2-.1-6.7.3-14.5l.6-14.3 2.5 2.3c1.3 1.3 3.7 4 5.3 6zm-25.1 20c-5.1 13.9-9.4 25.5-9.6 25.7-.2.2-.4-7.9-.4-18.1V72.2l9.3-7.5c5-4.1 9.4-7.3 9.6-7.1.2.2-3.8 11.7-8.9 25.6zm-47 2.9c-2.7 14.5-5 26.8-5.1 27.4 0 .5-1.8-4.7-3.9-11.6l-4-12.6 8.7-15.8c4.8-8.7 8.8-15.4 9-14.8.2.6-1.9 12.9-4.7 27.4zm245-17.6c0 4.7-.3 8.5-.7 8.5-1.5 0-26.3-5.3-26-5.6.4-.4 25.2-11.2 26-11.3.4-.1.7 3.7.7 8.4zm-186 9.3v12.9l-8.1 9.4c-4.5 5.2-8.4 9.6-8.6 9.9-.3.3.4-1.8 1.5-4.5 1-2.8 4.8-13 8.3-22.7 3.5-9.8 6.5-17.8 6.7-17.8.1 0 .2 5.8.2 12.8zm101 9.9c3.2 11.4 5.7 20.9 5.6 21-.1.2-5.8-1.3-12.5-3.2-6.7-1.9-12.4-3.5-12.6-3.5-.4 0 9.5-29.5 11.5-34.5.7-1.7 1.4-2.5 1.7-1.8.2.6 3.1 10.5 6.3 22zm-74.1-3.4c4.1 7.2 8.7 15.5 10.3 18.4l2.9 5.1-16.8-7.5c-9.2-4.1-17-7.7-17.2-7.9-.4-.3 12.2-21.3 12.9-21.4.3 0 3.8 6 7.9 13.3zm107.3 1.4c-5.5 6-12.2 12.8-14.7 15.3l-4.7 4.5.5-3c.3-1.7 1.6-8.5 2.8-15.3l2.3-12.2h23.8l-10 10.7zm-221.9-2.5l10.3 7.3-7.1 23c-3.9 12.6-7.3 23.6-7.6 24.3-.2.8-1.7-11.8-3.3-28-1.5-16.1-3-30.3-3.3-31.6-.3-1.2-.2-2.2.1-2.2.4 0 5.3 3.3 10.9 7.2zm260.2-3.5c7.2 1.4 13.1 2.8 13.3 2.9.4.2-3.7 23.6-4.2 24.1-.3.4-23.6-28.4-23.6-29.1 0-.9.5-.8 14.5 2.1zM1235 99.5V121h-9c-7.3 0-9 .3-9 1.5s1.4 1.5 6.3 1.5h6.2l-6.3 4c-3.4 2.2-6.7 4-7.3 4-.5 0-3.3-1.6-6.2-3.5l-5.2-3.5h3.8c2.6 0 3.7-.4 3.7-1.4 0-1.1-1.4-1.6-4.8-1.8l-4.9-.3 16.1-21.7c8.9-12 16.2-21.8 16.4-21.8.1 0 .2 9.7.2 21.5zm168-5.3c-1.8 5.6-3.5 10.6-3.9 11.1-.6.6-15.9 3.7-18.6 3.7-.5 0 4.9-5.8 12-13 7.1-7.1 13.1-12.8 13.3-12.6.2.2-1.1 5.1-2.8 10.8zm13.7 19.4c-.1.1-3-1.4-6.4-3.4-4.1-2.4-6.1-4.2-5.8-5.2.2-.8 1.8-6.2 3.6-12l3.3-10.5 2.8 15.4c1.5 8.5 2.7 15.6 2.5 15.7zm11.7-16.1c5.8 7.1 10.6 13.2 10.6 13.5 0 .7-13.5 4-16.1 4-1.2 0-2-2.8-3.8-13.3-1.3-7.2-2.5-14.6-2.8-16.2-.7-3.8-.8-3.9 12.1 12zm-235.4 26c-.7.8-5.6 5.6-11 10.5l-9.7 9 6.4-21.3c3.5-11.6 6.6-21.9 6.9-22.7.4-.9 2.3 3.6 4.7 10.7 3.3 10.1 3.8 12.5 2.7 13.8zm70.9-15.4l1.8 8.6-9.3 1.2c-5.1.6-10 1.1-10.9 1.1-1 0 1.8-3.9 7.2-10.3 4.8-5.6 8.9-10 9-9.7.2.3 1.1 4.4 2.2 9.1zm31.5 2.2l5 2.1-7 1.8c-3.8.9-7.9 2-9.2 2.3-1.9.5-3-.6-7.7-7.9-3-4.6-5.5-8.7-5.5-9 0-.3 4.4 1.5 9.8 4 5.3 2.5 11.9 5.5 14.6 6.7zm33.4-6.6c4.1.9 7.1 2.1 6.9 2.7-2.9 8.6-13.2 35.4-13.5 35.2-.3-.4-3.1-33.3-3.2-37.4 0-2.7.5-2.7 9.8-.5zm24.6 6.9c5 1.5 9.7 3 10.4 3.4 1 .5-2.6 3.4-10.8 8.9-6.7 4.6-12.3 8.1-12.5 7.9-.2-.2-.1-5.6.2-12.1.5-9.9.8-11.7 2.1-11.2.8.3 5.6 1.7 10.6 3.1zm33.9 12.4c-4.7 7.2-9 12.7-9.3 12.3-.7-.8-4.2-20.5-3.7-20.9.1-.1 4.9-1.1 10.7-2.2 5.8-1.1 10.6-2.1 10.8-2.1.1-.1-3.7 5.8-8.5 12.9zm21.2-7.9c3 1.7 5.5 3.4 5.5 3.7 0 .6-24.5 14.9-27.3 16.1-.6.2 2.6-4.9 6.9-11.2 4.3-6.4 8.2-11.7 8.7-11.7.4 0 3.2 1.4 6.2 3.1zm-97.7 16.7l4.9 14.2-5.1-4.3c-2.8-2.4-9.5-8-14.9-12.5l-9.7-8.1 3.7-1c12.4-3.3 14.9-3.8 15.5-3.2.4.3 2.9 7 5.6 14.9zm129.7-11.6c-.3 1.3-1.8 8.5-3.4 16.1-1.6 7.6-3.2 14.1-3.4 14.4-.3.2-11.3-1.3-24.4-3.5l-23.8-4 10-4.6c35.3-16.4 44.1-20.5 44.8-20.5.4-.1.5.9.2 2.1zm-127.9 30.4c-.1.1-7.2-.6-16-1.4l-15.8-1.6.6-6.6c.3-3.6.6-8.9.6-11.8V124l15.3 13.2c8.5 7.3 15.3 13.4 15.3 13.4zm-48-22.4c-.3 1.8-1.3 8.9-2.2 15.8-.9 6.9-2 12.8-2.3 13.2-.4.5-3.3-4.1-6.4-10.1l-5.7-10.9 7.7-5.5c4.3-3.1 8.2-5.6 8.7-5.6.4-.1.6 1.4.2 3.1zm183.7 15.5l3.4 16.3-5.6-3.2c-3.1-1.7-6-3.5-6.5-3.9-.8-.7 2.2-19 4.1-25.4.8-2.5.6-3.1 4.6 16.2zM1195 162.2v33.3l-12.2-22-12.1-22 11.9-11.2c6.5-6.2 12-11.3 12.2-11.3.1 0 .2 15 .2 33.2zm17.9-25.6c.3.3-1.6 8.9-4.1 17.9l-1.1 4-3.3-13.5a538 538 0 01-3.4-14.7c0-1 8.8 3.8 11.9 6.3zm24.3 8.6c-.8 12-.9 12-8.2 3.1-3.5-4.3-6.8-8.4-7.3-9.1-.7-.9.9-1.2 7.5-1.2h8.5l-.5 7.2zm-12.3 6.6c4 5.2 7 9.6 6.7 9.9-.6.6-19.7 4.5-20.1 4.1-.2-.2 1-5.5 2.5-11.8 1.6-6.3 2.9-11.7 2.9-11.9.1-.5-.6-1.4 8 9.7zm-20 16.7c0 1.6-1.3 6.8-2.9 11.5l-2.8 8.5v-45l2.8 11c1.6 6 2.9 12.3 2.9 14zm205.4-17.1c11.9 1.8 21.9 3.5 22.2 3.7.4.4-6.5 27.9-8 31.7-.7 1.9-.3 2.3-21.6-19.9-12-12.5-17.5-18.9-16.3-18.9 1.1 0 11.7 1.5 23.7 3.4zm-67.7-.8c-.3.9-.6 6.5-.6 12.6v11l-8.4-9.9-8.4-9.8 7.7-2.7c9.1-3.2 10.5-3.3 9.7-1.2zm-41.1 3c4.4.4 8.6 1 9.3 1.4.9.4-1.7 2.5-7.4 5.9-4.7 2.8-8.8 5-8.9 4.9-.1-.2-2.3-3.1-4.8-6.5-2.6-3.4-4.7-6.5-4.7-6.8 0-.4 1.9-.5 4.3-.1 2.3.3 7.8.9 12.2 1.2zm-122 24.1c5.7 10.3 10.1 19 9.9 19.2-.1.2-6.3-3.2-13.7-7.5l-13.4-7.8 3-11.9c1.6-6.5 3.2-11.5 3.5-11.3.2.3 5.1 9 10.7 19.3zm268-14.7c2.2 1.3 4.1 2.4 4.3 2.5.1.1-1.4 6.5-3.5 14.1l-3.8 13.9-2.7-16.5c-3.4-20.9-3.3-19.6-.5-17.8 1.2.8 4 2.5 6.2 3.8zm-28.2 28.5c.5 1-.8 1.8-4.7 2.9-3 .9-5.8 1.6-6.3 1.6s-2.1-2.4-3.6-5.3c-1.4-2.8-5.7-11.1-9.5-18.3l-6.8-13.1 15.1 15.5c8.2 8.5 15.3 16 15.8 16.7zm-103.5-29.8c-4.2 15.4-11.3 39.2-11.6 38.9-.2-.3-2.1-7-4.2-14.9l-3.8-14.6 9.1-5.5c10.1-6 11.2-6.4 10.5-3.9zm15.6 8.4l8.5 10.1-10.2 11.8c-5.6 6.5-10.3 11.7-10.5 11.5-.7-.6 2.6-43.5 3.3-43.5.2 0 4.2 4.6 8.9 10.1zm61.6 9c5.5 10.5 10 19.2 9.8 19.4-.2.1-3.3 1.8-6.9 3.8l-6.5 3.7-3.3-20.3c-1.8-11.1-3.5-21.4-3.8-23-.3-1.5-.3-2.7 0-2.7s5.1 8.6 10.7 19.1zm-11.6 6.5l3.2 19.1-5.3-3.5c-2.9-1.9-5.3-4-5.3-4.6 0-.6.7-7.6 1.5-15.6s1.5-15.6 1.6-17l.2-2.5.4 2.5c.3 1.4 1.9 11.1 3.7 21.6zm59 11.6l.5 2.7-6.2-3.6c-3.4-2-6.3-3.7-6.5-3.8-.2-.2 1.4-6.5 3.5-14.1l3.7-13.8 2.2 15c1.3 8.2 2.5 16.1 2.8 17.6zM1217 180.5c-7.4 7.4-13.6 13.3-13.8 13.1-.4-.5 5.8-20.9 6.8-21.9.3-.4 4.9-1.6 10.1-2.6 5.2-1 9.6-1.9 9.9-2 .3-.1-5.6 6-13 13.4zm72.5-8c0 .5-1.1 4.6-2.4 9l-2.4 7.9-2.6-3.1c-1.4-1.7-5.4-6.1-8.7-9.9l-6.2-6.9 11.2 1c6.1.5 11.1 1.4 11.1 2zm-63.9 10.7c-1.3 2.9-3.8 8.3-5.5 12l-3.1 6.8h-14.2l12.4-12c6.7-6.5 12.4-11.9 12.5-12 .2 0-.8 2.4-2.1 5.2zm-35 20.5c-.1.2-5.2 1.8-11.2 3.6-6 1.9-11.9 3.7-13.1 4.1-2 .6-2.2.3-2.8-6.1-.3-3.7-.8-9.4-1.1-12.5l-.6-5.8 14.5 8.3c8 4.5 14.4 8.3 14.3 8.4zm232.4 6c0 6.9-.2 12.4-.5 12.2-.2-.3-3.2-5.2-6.5-11l-6-10.4 5.2-1.7c8.3-2.5 7.8-3.3 7.8 10.9zm10.9-8.2c3.4 2 6.1 3.8 6.1 4 0 .4-11.6 17.3-12.6 18.4-.2.2-.4-5.5-.4-12.7 0-7.3.2-13.2.4-13.2.3 0 3.2 1.6 6.5 3.5zm-51.7 7.8l2.7 2.2-4.3 18.5c-3 12.5-4.5 17.7-4.9 16-.3-1.4-.9-11.4-1.2-22.3l-.6-19.9 2.8 1.7c1.5.9 4 2.6 5.5 3.8zm14.3 4.9c-8.6 18.5-14.5 30.2-14 27.8.3-1.4 2-8.7 3.9-16.4l3.3-13.9 5.4-3.3c3-1.8 5.5-3.3 5.6-3.3.1-.1-1.8 4.1-4.2 9.1zm-181.5-7c0 1.1-6.1 19.4-8.2 24.7-.9 2.3-1.4.9-3.9-10.4-1.5-7.2-2.8-13.6-2.9-14.3 0-.8 2.1-1.2 7.5-1.2 5 0 7.5.4 7.5 1.2zm200.5 12.3l6.7 11.5-9.8 10.5c-5.3 5.8-9.8 10.4-10 10.2-.4-.4 4.2-37.4 5.1-41.5.3-1.2.7-2.2.9-2.2.2 0 3.4 5.2 7.1 11.5zm-228.3 8.4l-4.6 15-4.9-4.2c-2.7-2.3-5.8-4.9-6.9-5.8-1.9-1.5-1.6-1.9 8.9-10.7 5.9-5 11.1-9.1 11.4-9.2.4 0-1.4 6.7-3.9 14.9zm12.3.5c1.4 7.6 2.5 13.9 2.3 14.1-.5.4-14.3 2.3-14.6 2-.2-.2 1.8-7.1 4.4-15.4 2.6-8.3 4.9-15 5-14.8.1.1 1.4 6.4 2.9 14.1zm199.6 8.3c-1.5 11.7-3 21.5-3.2 21.8-.7.7-16.3 4.3-16.8 3.9-.2-.2 4.7-10.9 10.9-23.9 6.3-12.9 11.4-23.4 11.6-23.2.1.1-1 9.8-2.5 21.4zm43.2 1.5c-3 7.3-7.1 17.3-9.1 22.3l-3.7 8.9-.7-10.4c-.3-5.8-.8-13.9-1-18.1l-.3-7.7 9.5-4c5.2-2.2 9.8-4.1 10.2-4.1.3-.1-1.8 5.9-4.9 13.1zm6 18.7l-.8 15.5-7.4 1.8c-4 1.1-7.5 1.7-7.7 1.5-.2-.2 3.4-9.4 7.9-20.5 9.3-23 9.2-23 8 1.7zm-270.9-11.6l3 2.4-5.7 9.9c-3.1 5.4-6.1 10.6-6.7 11.4-.7 1-1-3.7-1-15.3v-16.9l3.8 3.1c2 1.6 5 4.1 6.6 5.4zm57.7 16.4c.7 6.8 1 12.5.7 12.9-.8.8-23.9 2.6-24.6 2-.2-.3 4.4-7.1 10.3-15.2 7.4-10 11-14.2 11.5-13.3.4.8 1.4 6.9 2.1 13.6zm-49.4.6c1.2 3.9 2.3 7.9 2.3 8.8 0 1.1-2.2 1.9-8.7 3.2-4.8.9-8.8 1.5-8.9 1.4-.2-.1 2.5-5 5.9-10.9 3.4-5.8 6.4-10.4 6.6-10.2.3.2 1.5 3.7 2.8 7.7zM592 6.6c-4.7.7-8.6 1.3-8.7 1.3-.1.1-1.5 3.6-3.1 7.8l-3 7.8 3.1 34.9 3 34.9-2.7 12.1c-1.4 6.7-2.6 13.5-2.6 15.2 0 1.6 1.3 6.6 2.9 11l2.9 8-3.9 32.2-3.9 32.3 3.4 7.8 3.4 7.7-4.9 21.2-4.8 21.1 2.7 7.8 2.7 7.8 5 .2c2.8.1 16.1 1 29.7 1.9 21.5 1.5 26.5 1.5 38.4.4 9.7-.9 13.7-1.7 14.1-2.7.3-.8-1.6-8.9-4.2-18.1l-4.8-16.7 1.2-23.5c.7-12.9 1.4-23.6 1.5-23.7.4-.4 29.5 3.3 29.9 3.7.2.3 10.3 15.3 22.4 33.5 15.8 23.8 22.6 35 24.4 40l2.6 7 12.9.6c18 .9 49.8 1 64.2.2 10.7-.5 12.2-.8 12.2-2.4 0-2-7.7-22.1-11.2-29.5-1.3-2.7-7.2-11.3-13-19-9-11.9-15.5-19.5-35.6-41.6l-2.4-2.7 8.6-4.3c8.2-4.1 9.4-5.2 24.1-21.2 8.5-9.3 15.5-17.5 15.5-18.3 0-.7 1.8-14.1 4-29.8l4-28.5-11.8-23.5-11.7-23.6-21.4-12.1-21.4-12.1-19.1-2.3c-25.2-3.2-71.6-3.6-87.9-.8l-10.2 1.7-15.1-2.6c-16.6-3-18.9-3-31.4-1.1zm114.9 13c-1 5.3-2 9.8-2.2 10-.1.2-7.9-4.2-17.2-9.7L670.6 10h38.1l-1.8 9.6zm-47.2-6.4c-.3 1.3-.9 5.2-1.3 8.8-.3 3.6-1 7.1-1.4 7.8-.5 1-2.7-1.2-7.2-7-3.6-4.5-6.4-8.5-6.2-8.7.4-.4 12.1-2.8 14.8-3 1.4-.1 1.7.4 1.3 2.1zm73.2-.1c9.1 1.2 16.7 2.2 16.8 2.3.1.1-3.7 7.7-8.3 17-4.7 9.2-8.7 16.6-8.9 16.4-.3-.3-10.1-21.3-15.1-32.6-1.3-2.8-2.1-5.2-1.7-5.2.3 0 8.1.9 17.2 2.1zM682.3 23c9.1 5.2 16.5 9.6 16.3 9.7-.3.3-37 3.3-37.2 3-.5-.6 3-22.7 3.6-22.5.3.2 8.1 4.6 17.3 9.8zm-82.7-1.4c5.2 3.1 9.6 6 9.9 6.3.4.8-12.3 17.1-13.4 17.1-.3 0-1.9-5.5-3.5-12.3-1.5-6.7-3-13.2-3.3-14.5-.3-1.2-.2-2.2.2-2.2.3 0 4.9 2.5 10.1 5.6zm45.6 3.5c3.7 4.9 6.4 8.9 6.1 8.9-.4 0-7.6-1.7-16-3.7l-15.2-3.7 8.7-5.2c4.8-2.9 8.9-5.3 9.2-5.3.3 0 3.5 4 7.2 9zm74.3 7.9c5.9 12.9 6.3 14.2 3.8 11.9-1.5-1.4-5.3-4.6-8.4-7.2l-5.6-4.6.9-5.3c1.2-7.7 1.8-10.1 2.3-9.6.2.2 3.4 6.9 7 14.8zm55-4.4c8.5 4.7 15.5 8.9 15.5 9.3 0 .3-5.4 3.1-11.9 6.2l-11.9 5.6-3.6-13.3c-2-7.4-3.9-14.1-4.2-14.9-.4-.8-.3-1.5 0-1.5s7.6 3.9 16.1 8.6zm-21.8 33.2l-9.5 9.5 4.9-21.9c2.7-12.1 5.2-22.6 5.5-23.4.4-.8 2.4 4.8 4.6 12.4l4 13.9-9.5 9.5zm-113-25.7c9.2 2.3 16.8 4.2 16.8 4.3 0 0-.2 5.8-.5 12.9l-.5 12.7-17-17c-9.3-9.3-16.7-17-16.3-17 .4 0 8.2 1.9 17.5 4.1zM624.9 52c4.4 8 7.8 14.6 7.6 14.8-.2.2-4.7-1.7-10-4.2-8.7-4.1-9.7-4.8-9.2-6.8.3-1.3.9-6.3 1.2-11.1.4-4.9 1.1-8.5 1.6-8 .4.4 4.4 7.3 8.8 15.3zm-34.3-3l2 3.5-3 13.2c-1.7 7.3-3.1 13.1-3.3 12.9-.4-.4-3.3-34.2-3.3-38.6v-3.5l2.8 4.5c1.6 2.5 3.7 6.1 4.8 8zm106.9-11.2c-.6.5-9.3 7.2-19.5 14.9l-18.5 14 .3-13.4c.3-11.7.5-13.3 2-13.4.9 0 8-.7 15.7-1.4 17.8-1.6 21.1-1.7 20-.7zm21 9.3c4.6 4 8.4 7.4 8.2 7.5-.7.8-29 10.4-29.4 10-.2-.2 1.9-6.1 4.8-13 3.6-8.7 5.6-12.5 6.5-12.2.7.3 5.2 3.8 9.9 7.7zm-22.9 7.3l-5.1 12.4-8.5.7c-4.7.3-10.5.8-13 1.1-4.4.6-4.3.4 13.5-13 9.9-7.4 18.1-13.6 18.1-13.6.1 0-2.1 5.6-5 12.4zm94.1-7.2c-2.8 6.6-12.2 24.8-12.8 24.8-.3 0-2.4-4.1-4.7-9.1l-4.1-9 7.7-3.6c16.5-7.6 15.7-7.4 13.9-3.1zM649.3 70.1c-7.6 1.8-7.7 1.7-14.1-9.9-3.3-5.9-6.5-11.8-7.2-13.2-.7-1.4 4.5 3.1 11.4 10 12.3 12.2 12.6 12.5 9.9 13.1zM791.1 73c-1.2 9.9-2.1 18.8-2.1 19.8 0 1.4-7.2-9.7-8.7-13.5-.3-.7 2.4-7.2 5.9-14.5 3.4-7.2 6.4-12.4 6.6-11.5.2.8-.6 9.7-1.7 19.7zm-189-15.4l5.1 2.5-2.4 3.2c-1.4 1.8-5.1 6.7-8.3 11-3.2 4.3-5.9 7.6-6.1 7.4-.4-.4 5.8-26.7 6.3-26.7.2 0 2.6 1.1 5.4 2.6zm208 11.6l7.1 14.1-3.8 7.3c-2.2 4-4 7.1-4.2 6.9-.4-.3-7.1-39.9-7.2-41.8 0-2.2 1.7.6 8.1 13.5zM801.5 81c1.8 11.3 3.1 20.7 2.9 20.9-.3.3-10.3-1.8-11.4-2.5-.5-.2 1.6-21.6 4.1-42.4.2-1.9.4-1 4.4 24zm-35.6.7c1.2 10.6 2.1 20.2 2.1 21.3 0 2.1-2.7-.5-20.5-19.8l-4.9-5.3 10-10c9.1-9.1 9.9-9.7 10.6-7.7.4 1.3 1.6 10.9 2.7 21.5zm-32.4-14.4c1.5 5.1 1.9 7.7 1.1 7.7-2.3 0-32.6-6.3-32.2-6.7.7-.8 27.1-9.1 28-8.9.5.1 1.9 3.7 3.1 7.9zm-108.8 1.5l10 4.7-11.9 8.9c-6.5 4.9-12 8.7-12.2 8.5-.3-.3 1.9-25.6 2.3-26.7.3-.7 2.8.3 11.8 4.6zm-17.1 3.4c-.3 2.4-.8 8.3-1.2 13.2l-.6 8.8-7.6-.7c-4.3-.4-7.8-.8-8-1-.3-.3 17-24.4 17.6-24.5.2 0 .1 1.9-.2 4.2zm105.8 3.3c12.6 2.5 23.1 4.7 23.4 5 .3.2 2.2 7.7 4.4 16.5l3.8 16.1-6 7.1c-5 6-7 7.6-13.2 10.3l-7.3 3.3-30.4.6-30.4.6.7-4.6c.3-2.5.9-16.3 1.3-30.5.3-14.2.9-25.9 1.2-26 .3 0 6.9-.7 14.6-1.4 7.7-.7 14.2-1.3 14.5-1.4.3 0 10.8 1.9 23.4 4.4zm-82.1 14.2c-1.9 5.4-4.5 12.6-5.7 16.1-1.2 3.5-2.6 6.2-3.1 6.1-1.4-.4-10.6-13.2-10.2-14.2.2-.6 21.2-17.2 22.4-17.6 0-.1-1.5 4.3-3.4 9.6zm129.9 21.5c-2.6.3-6.3.7-8.3.7l-3.7.1-2.2-9.8c-1.2-5.3-2.4-10.8-2.6-12.2-.4-1.9 2.3.4 10.5 9l11 11.5-4.7.7zM656 97.2c0 2.9-.3 10.5-.7 16.8l-.6 11.5-4.4-13c-2.3-7.1-4.3-13.3-4.3-13.7 0-.8 8.1-6.7 9.3-6.8.4 0 .7 2.4.7 5.2zm-38.9 16.4l2.8 4.2-13.9 8-13.9 8 8-16 8-16 3.1 3.9c1.6 2.1 4.3 5.7 5.9 7.9zm33.5 17.1c-.3.4-20.5-11.2-21.9-12.6-.6-.6 1.4-3.6 5.9-8.6l6.8-7.6 4.8 14.2c2.6 7.9 4.6 14.4 4.4 14.6zm136.7-4.7l-.8 5.5-5.7-9-5.6-8.9 6.1-4.2 6.2-4.1.3 7.6c.1 4.2-.1 10.1-.5 13.1zm20.1-4.3c.4 4.3.9 9.9 1.3 12.5l.6 4.8-7.9-.6c-4.4-.4-8.1-.8-8.3-1-.5-.4 12.1-23.4 12.9-23.4.4 0 1 3.5 1.4 7.7zm-23.9 31.5c-1.6 6.9-3.3 12.9-3.6 13.2-.3.3-4.6-7-9.7-16.2s-10.8-19.5-12.6-22.8l-3.5-6.2 16.2 9.7 16.3 9.6-3.1 12.7zm-146.9-24.5c6.4 3.7 11.2 6.9 10.7 7-1.7.6-33.8 5-34.2 4.7-.4-.3 10.9-18.4 11.5-18.4.2 0 5.6 3 12 6.7zm112.3 4.4c3.2 13.7 9.2 43.2 8.9 43.5-.8.7-21.3-17.2-21.1-18.5.2-1.6 9.7-34.1 10-34.1 0 0 1.1 4.1 2.2 9.1zm18.5 22.2c5.4 9.8 9.7 17.9 9.5 18.1-2.3 2-12.2 6.7-12.8 6-.5-.5-3-11-5.5-23.4-2.6-12.4-5-23.4-5.2-24.5-.7-2.5 1.7 1.5 14 23.8zm-60.1 2.2c-5.4 10.7-9.9 19.2-10.1 19.1-.3-.4 5.5-34.6 6.4-37.4.2-.8 2.5-1.2 6.9-1.2h6.5l-9.7 19.5zM645 142.4c-.8.7-6.9 5.5-13.5 10.6s-12.5 9.7-13.1 10.2c-.9.6-2.1-1.8-4.3-8.3-1.7-5.1-3-9.3-2.8-9.4.4-.4 29.1-4.2 32.2-4.4 2.5-.1 2.7.1 1.5 1.3zm84.4 17.7c-.8 1.4-30.6 26.1-30.3 25.1.2-.6 5.1-10.7 10.9-22.5l10.5-21.4 4.6 9.1c2.6 5 4.5 9.4 4.3 9.7zm-35.7 7.1l-4.2 24.6-13.5-9.9c-7.4-5.5-13.5-10.4-13.5-10.9 0-1 34.6-29.2 35.2-28.7.1.2-1.7 11.4-4 24.9zm109.2-24.6l3.1.6-5 5.7c-2.7 3.1-7.4 8.3-10.4 11.6l-5.4 6 3-12.3 3-12.2h4.3c2.3 0 5.7.3 7.4.6zm-161.6 20.1c-4.1 9.3-8 18.1-8.6 19.7l-1.2 2.8-5.9-8.2c-5-6.9-5.7-8.3-4.5-9.5 1.6-1.6 27.1-21.5 27.5-21.5.1 0-3.1 7.5-7.3 16.7zm-29.8 5.5c0 1.5-12.8 14.9-13.5 14.1-.4-.4-2.2-8-4-16.8-1.8-8.8-3.5-16.7-3.8-17.5-.3-.8 4.4 3.2 10.4 9 6 5.7 10.9 10.8 10.9 11.2zm43.5-10l-.1 11.3-7.7 5.7c-4.2 3.1-7.8 5.5-7.9 5.4-.3-.3 15-33.6 15.5-33.6.1 0 .2 5.1.2 11.2zm-64.5 12.6c1.9 9 3.5 16.5 3.5 16.8 0 .7-12.3 9.5-12.7 9.1-.2-.3.9-10.2 2.4-22.1 1.5-11.9 2.9-21.3 3-20.9.1.4 1.8 8.1 3.8 17.1zm154.2 2.4l11.5 9.3-24.4 4.1c-13.3 2.3-26.1 4.5-28.3 4.8l-4 .7 3.6-3c2-1.6 9.4-7.9 16.5-14s13.1-11 13.3-11.1c.2 0 5.5 4.2 11.8 9.2zm-121.3 8.9l4.6 6.7-10.2 7.8c-5.6 4.4-10.7 8.3-11.4 8.7-.8.4 1.2-6.7 4.4-15.7 4.3-12.3 6-16.2 6.8-15.3.6.7 3.2 4.2 5.8 7.8zm58.4 10.4c-.2.1-4.8-.4-10.3-1.1-5.5-.7-10.6-1.3-11.2-1.4-.9 0-1.3-2.2-1.3-7.5V175l11.5 8.6c6.4 4.8 11.4 8.8 11.3 8.9zm65.6 2.5l-8 8.1-17.2-3.3c-9.4-1.7-17-3.4-16.8-3.5.2-.2 11.3-2.3 24.7-4.7 13.4-2.4 24.6-4.5 24.9-4.5.3-.1-3.1 3.5-7.6 7.9zm-100.3-1.2l5.7.7-7.5 9c-4.2 4.9-9 10.6-10.7 12.6l-3.1 3.7 1.1-13.7c.7-7.5 1.2-13.7 1.3-13.8.1-.1 1.5.1 13.2 1.5zm-18.6 11.1c-.4 4.9-1 11.2-1.4 13.9l-.6 4.8-10.8-5-10.7-5.1 11.2-8.7c6.2-4.8 11.7-8.7 12.2-8.7.4-.1.5 3.9.1 8.8zm92.7-.9c8.8 1.6 16.3 3 16.8 3 .8 0 4.5 18.9 3.9 19.4-.2.2-9.1-5.5-19.8-12.6-10.7-7-18.9-12.8-18.2-12.8.7 0 8.4 1.3 17.3 3zm-72.7 12.9c-1.8 7.3-3.6 13.5-3.8 13.8-.3.3-3.1-.7-6.3-2.1-4.1-1.9-5.4-2.9-4.7-3.9 4.7-6.1 17.7-21.7 17.9-21.4.2.1-1.2 6.2-3.1 13.6zm94.6 22.2c-.2 3-.6 7.2-.9 9.4l-.7 3.9-17.8-21.1c-9.7-11.7-17.7-21.4-17.7-21.7 0-.3 8.4 5 18.7 11.8l18.7 12.3-.3 5.4zm39.4-22.9c2.8 1.2 5.3 2.4 5.7 2.7.6.5-7.5 28.6-9.8 34.1-.6 1.3-11.3-38.2-11.4-41.7 0-1.3 2.5-.4 15.5 4.9zm-14.6 18c2.8 10.8 5.1 20 5.1 20.5 0 .4-5.3-4.6-11.9-11.1l-11.8-11.8 6.1-9.8c3.3-5.3 6.4-9.2 6.7-8.6.4.6 3 10 5.8 20.8zm-162.3-6c3.7 6.8 7.4 13.4 8.2 14.8.9 1.4-4.2-3.1-11.1-10-7-6.9-12.7-12.7-12.7-13 0-.3 1.9-1.3 4.3-2.2l4.3-1.7c.1-.1 3.2 5.4 7 12.1zm13.8-3.2l6.8 3.3-.6 7.1c-.4 3.9-.9 9.1-1.3 11.4l-.6 4.4-4.8-8.6c-2.6-4.8-6.7-12.1-9-16.2l-4.1-7.5 3.3 1.4c1.9.8 6.5 2.9 10.3 4.7zm-2.2 32.1c-.9.3-8.7.9-17.2 1.3s-16.9 1-18.6 1.2l-3.2.6 3.4-16.4c1.9-8.9 3.7-17.1 4-18.2.5-1.5 3.7 1.2 17 14.5 13 13 16 16.5 14.6 17zm183.6-23.4c4 5.4 7.3 10.2 7.3 10.7s-5.9 4-13.1 7.7c-9.4 4.8-13.1 6.3-12.7 5.1 2.9-10.5 10.2-33.2 10.7-33.2.3 0 3.8 4.4 7.8 9.7zm-30.3 26.9c0 .3-24-3.8-24.3-4.1-.2-.2 0-4.5.4-9.5l.7-9.1 11.6 11.3c6.4 6.2 11.6 11.4 11.6 11.4zm-117.6-4.2c3.4 8.2 6 15 5.9 15.1-.3.2-27.5-12.3-28.7-13.2-.2-.1 3.2-4.2 7.5-9.2 4.4-4.9 8.2-8.6 8.6-8.3.3.4 3.4 7.4 6.7 15.6zm150.4 10l-6.6 9.4-6.3-5.1c-3.5-2.8-6.4-5.3-6.4-5.7 0-.5 22.1-7.4 25.2-7.9.4-.1-2.2 4.1-5.9 9.3zm-44.6-3.3c5.1.7 9 1.6 8.6 1.9-1 .9-23.5 9.2-23.8 8.8-.2-.2.2-3.1.8-6.6.9-5.7 1.2-6.3 3-5.8 1.1.3 6.3 1.1 11.4 1.7zM614 264c-1.4 1.1-4.9 3.6-7.9 5.7l-5.4 3.7-8.3-4.4c-4.6-2.4-8-4.8-7.6-5.2.7-.7 8.5-1.2 24.2-1.6l7.5-.2-2.5 2zm14.8 4.7c2.1 3.2 4.2 6.4 4.6 7.1.6 1.1-.9 1.2-8.1.7-4.8-.3-10.8-.8-13.2-1.1l-4.3-.6 8.3-5.8c4.6-3.3 8.5-5.9 8.6-6 .1 0 2 2.6 4.1 5.7zM784 272l6.3 5-13.9-.1c-7.7 0-15.9-.4-18.4-.7l-4.5-.7 11-4.2c6.1-2.3 11.5-4.2 12.1-4.2.6-.1 4 2.1 7.4 4.9z"/></svg>